G04 #@! TF.GenerationSoftware,KiCad,Pcbnew,8.0.1*
G04 #@! TF.CreationDate,2025-06-12T10:30:47+03:00*
G04 #@! TF.ProjectId,Picksy,5069636b-7379-42e6-9b69-6361645f7063,rev?*
G04 #@! TF.SameCoordinates,Original*
G04 #@! TF.FileFunction,Copper,L1,Top*
G04 #@! TF.FilePolarity,Positive*
%FSLAX46Y46*%
G04 Gerber Fmt 4.6, Leading zero omitted, Abs format (unit mm)*
G04 Created by KiCad (PCBNEW 8.0.1) date 2025-06-12 10:30:47*
%MOMM*%
%LPD*%
G01*
G04 APERTURE LIST*
%ADD10C,0.600000*%
G04 #@! TA.AperFunction,NonConductor*
%ADD11C,0.600000*%
G04 #@! TD*
%ADD12C,0.900000*%
G04 #@! TA.AperFunction,NonConductor*
%ADD13C,0.900000*%
G04 #@! TD*
G04 #@! TA.AperFunction,SMDPad,CuDef*
%ADD14R,2.000000X1.000000*%
G04 #@! TD*
G04 #@! TA.AperFunction,SMDPad,CuDef*
%ADD15R,2.500000X1.700000*%
G04 #@! TD*
G04 #@! TA.AperFunction,Conductor*
%ADD16C,0.800000*%
G04 #@! TD*
G04 #@! TA.AperFunction,Conductor*
%ADD17C,0.400000*%
G04 #@! TD*
G04 APERTURE END LIST*
D10*
D11*
X190398342Y-121909021D02*
X193398342Y-121909021D01*
X193398342Y-121909021D02*
X193398342Y-123051878D01*
X193398342Y-123051878D02*
X193255485Y-123337593D01*
X193255485Y-123337593D02*
X193112628Y-123480450D01*
X193112628Y-123480450D02*
X192826914Y-123623307D01*
X192826914Y-123623307D02*
X192398342Y-123623307D01*
X192398342Y-123623307D02*
X192112628Y-123480450D01*
X192112628Y-123480450D02*
X191969771Y-123337593D01*
X191969771Y-123337593D02*
X191826914Y-123051878D01*
X191826914Y-123051878D02*
X191826914Y-121909021D01*
X190398342Y-124909021D02*
X192398342Y-124909021D01*
X193398342Y-124909021D02*
X193255485Y-124766164D01*
X193255485Y-124766164D02*
X193112628Y-124909021D01*
X193112628Y-124909021D02*
X193255485Y-125051878D01*
X193255485Y-125051878D02*
X193398342Y-124909021D01*
X193398342Y-124909021D02*
X193112628Y-124909021D01*
X190541200Y-127623307D02*
X190398342Y-127337592D01*
X190398342Y-127337592D02*
X190398342Y-126766164D01*
X190398342Y-126766164D02*
X190541200Y-126480449D01*
X190541200Y-126480449D02*
X190684057Y-126337592D01*
X190684057Y-126337592D02*
X190969771Y-126194735D01*
X190969771Y-126194735D02*
X191826914Y-126194735D01*
X191826914Y-126194735D02*
X192112628Y-126337592D01*
X192112628Y-126337592D02*
X192255485Y-126480449D01*
X192255485Y-126480449D02*
X192398342Y-126766164D01*
X192398342Y-126766164D02*
X192398342Y-127337592D01*
X192398342Y-127337592D02*
X192255485Y-127623307D01*
X190398342Y-128909021D02*
X193398342Y-128909021D01*
X191541200Y-129194736D02*
X190398342Y-130051878D01*
X192398342Y-130051878D02*
X191255485Y-128909021D01*
X190541200Y-131194735D02*
X190398342Y-131480449D01*
X190398342Y-131480449D02*
X190398342Y-132051878D01*
X190398342Y-132051878D02*
X190541200Y-132337592D01*
X190541200Y-132337592D02*
X190826914Y-132480449D01*
X190826914Y-132480449D02*
X190969771Y-132480449D01*
X190969771Y-132480449D02*
X191255485Y-132337592D01*
X191255485Y-132337592D02*
X191398342Y-132051878D01*
X191398342Y-132051878D02*
X191398342Y-131623307D01*
X191398342Y-131623307D02*
X191541200Y-131337592D01*
X191541200Y-131337592D02*
X191826914Y-131194735D01*
X191826914Y-131194735D02*
X191969771Y-131194735D01*
X191969771Y-131194735D02*
X192255485Y-131337592D01*
X192255485Y-131337592D02*
X192398342Y-131623307D01*
X192398342Y-131623307D02*
X192398342Y-132051878D01*
X192398342Y-132051878D02*
X192255485Y-132337592D01*
X192398342Y-133480449D02*
X190398342Y-134194735D01*
X192398342Y-134909020D02*
X190398342Y-134194735D01*
X190398342Y-134194735D02*
X189684057Y-133909020D01*
X189684057Y-133909020D02*
X189541200Y-133766163D01*
X189541200Y-133766163D02*
X189398342Y-133480449D01*
X192398342Y-138051877D02*
X190398342Y-138766163D01*
X190398342Y-138766163D02*
X192398342Y-139480448D01*
X193398342Y-140337591D02*
X193398342Y-142194734D01*
X193398342Y-142194734D02*
X192255485Y-141194734D01*
X192255485Y-141194734D02*
X192255485Y-141623305D01*
X192255485Y-141623305D02*
X192112628Y-141909020D01*
X192112628Y-141909020D02*
X191969771Y-142051877D01*
X191969771Y-142051877D02*
X191684057Y-142194734D01*
X191684057Y-142194734D02*
X190969771Y-142194734D01*
X190969771Y-142194734D02*
X190684057Y-142051877D01*
X190684057Y-142051877D02*
X190541200Y-141909020D01*
X190541200Y-141909020D02*
X190398342Y-141623305D01*
X190398342Y-141623305D02*
X190398342Y-140766162D01*
X190398342Y-140766162D02*
X190541200Y-140480448D01*
X190541200Y-140480448D02*
X190684057Y-140337591D01*
D12*
D13*
X175263533Y-144645342D02*
X176763533Y-144645342D01*
X177406390Y-147002485D02*
X175263533Y-147002485D01*
X175263533Y-147002485D02*
X175263533Y-142502485D01*
X175263533Y-142502485D02*
X177406390Y-142502485D01*
X179334962Y-147002485D02*
X179334962Y-142502485D01*
X179334962Y-142502485D02*
X180406391Y-142502485D01*
X180406391Y-142502485D02*
X181049248Y-142716771D01*
X181049248Y-142716771D02*
X181477819Y-143145342D01*
X181477819Y-143145342D02*
X181692105Y-143573914D01*
X181692105Y-143573914D02*
X181906391Y-144431057D01*
X181906391Y-144431057D02*
X181906391Y-145073914D01*
X181906391Y-145073914D02*
X181692105Y-145931057D01*
X181692105Y-145931057D02*
X181477819Y-146359628D01*
X181477819Y-146359628D02*
X181049248Y-146788200D01*
X181049248Y-146788200D02*
X180406391Y-147002485D01*
X180406391Y-147002485D02*
X179334962Y-147002485D01*
X183834962Y-146573914D02*
X184049248Y-146788200D01*
X184049248Y-146788200D02*
X183834962Y-147002485D01*
X183834962Y-147002485D02*
X183620676Y-146788200D01*
X183620676Y-146788200D02*
X183834962Y-146573914D01*
X183834962Y-146573914D02*
X183834962Y-147002485D01*
X185549248Y-148716771D02*
X185763533Y-148502485D01*
X185763533Y-148502485D02*
X186192105Y-147859628D01*
X186192105Y-147859628D02*
X186406391Y-147431057D01*
X186406391Y-147431057D02*
X186620676Y-146788200D01*
X186620676Y-146788200D02*
X186834962Y-145716771D01*
X186834962Y-145716771D02*
X186834962Y-144859628D01*
X186834962Y-144859628D02*
X186620676Y-143788200D01*
X186620676Y-143788200D02*
X186406391Y-143145342D01*
X186406391Y-143145342D02*
X186192105Y-142716771D01*
X186192105Y-142716771D02*
X185763533Y-142073914D01*
X185763533Y-142073914D02*
X185549248Y-141859628D01*
D14*
X141900000Y-100420000D03*
X145200000Y-97880000D03*
X141900000Y-95340000D03*
X145200000Y-92800000D03*
X141850000Y-110640000D03*
X145150000Y-108100000D03*
X141850000Y-105560000D03*
X145150000Y-103020000D03*
X162900000Y-142260000D03*
X166200000Y-139720000D03*
X162900000Y-137180000D03*
X166200000Y-134640000D03*
X141900000Y-142030000D03*
X145200000Y-139490000D03*
X141900000Y-136950000D03*
X145200000Y-134410000D03*
X141900000Y-131630000D03*
X145200000Y-129090000D03*
X141900000Y-126550000D03*
X145200000Y-124010000D03*
X141800000Y-121250000D03*
X145100000Y-118710000D03*
X141800000Y-116170000D03*
X145100000Y-113630000D03*
X162850000Y-131670000D03*
X166150000Y-129130000D03*
X162850000Y-126590000D03*
X166150000Y-124050000D03*
X162800000Y-121200000D03*
X166100000Y-118660000D03*
X162800000Y-116120000D03*
X166100000Y-113580000D03*
X162800000Y-110800000D03*
X166100000Y-108260000D03*
X162800000Y-105720000D03*
X166100000Y-103180000D03*
X162900000Y-100260000D03*
X166200000Y-97720000D03*
X162900000Y-95180000D03*
X166200000Y-92640000D03*
D15*
X187300000Y-98890000D03*
X187300000Y-96350000D03*
X124800000Y-93860000D03*
X124800000Y-96400000D03*
X124800000Y-98940000D03*
X124800000Y-101480000D03*
X188100000Y-115330000D03*
X188100000Y-112790000D03*
X188100000Y-110250000D03*
X124300000Y-113470000D03*
X124300000Y-116010000D03*
X124300000Y-118550000D03*
D16*
X156400000Y-88800000D02*
X160400000Y-88800000D01*
X124300000Y-118550000D02*
X124300000Y-133500000D01*
X134450000Y-88800000D02*
X156400000Y-88800000D01*
X124300000Y-133500000D02*
X139200000Y-148400000D01*
X139200000Y-148400000D02*
X148000000Y-148400000D01*
X148000000Y-148400000D02*
X156400000Y-140000000D01*
X156400000Y-140000000D02*
X156400000Y-88800000D01*
X188100000Y-112790000D02*
X188860000Y-112790000D01*
X190000000Y-96400000D02*
X189200000Y-96400000D01*
X188860000Y-112790000D02*
X191200000Y-110450000D01*
X191200000Y-110450000D02*
X191200000Y-97600000D01*
X191200000Y-97600000D02*
X190000000Y-96400000D01*
X189200000Y-96400000D02*
X189150000Y-96350000D01*
X189150000Y-96350000D02*
X187300000Y-96350000D01*
X187300000Y-96350000D02*
X180800000Y-96350000D01*
X180800000Y-96350000D02*
X169910000Y-96350000D01*
D17*
X124300000Y-116010000D02*
X126310000Y-116010000D01*
X126310000Y-116010000D02*
X141900000Y-100420000D01*
X124800000Y-101480000D02*
X138060000Y-101480000D01*
X138060000Y-101480000D02*
X145200000Y-94340000D01*
X145200000Y-94340000D02*
X145200000Y-92800000D01*
X124800000Y-98940000D02*
X138300000Y-98940000D01*
X138300000Y-98940000D02*
X141900000Y-95340000D01*
D16*
X169910000Y-96350000D02*
X166200000Y-92640000D01*
D17*
X188100000Y-110250000D02*
X180550000Y-110250000D01*
X180550000Y-110250000D02*
X174680000Y-116120000D01*
X174680000Y-116120000D02*
X162800000Y-116120000D01*
D16*
X160400000Y-88800000D02*
X162400000Y-88800000D01*
X124800000Y-96400000D02*
X126850000Y-96400000D01*
X126850000Y-96400000D02*
X134450000Y-88800000D01*
X162400000Y-88800000D02*
X166200000Y-92600000D01*
X166200000Y-92600000D02*
X166200000Y-92640000D01*
G04 #@! TA.AperFunction,Conductor*
G36*
X155442539Y-89720185D02*
G01*
X155488294Y-89772989D01*
X155499500Y-89824500D01*
X155499500Y-139575638D01*
X155479815Y-139642677D01*
X155463181Y-139663319D01*
X147663319Y-147463181D01*
X147601996Y-147496666D01*
X147575638Y-147499500D01*
X139624362Y-147499500D01*
X139557323Y-147479815D01*
X139536681Y-147463181D01*
X134651370Y-142577870D01*
X140399500Y-142577870D01*
X140399501Y-142577876D01*
X140405908Y-142637483D01*
X140456202Y-142772328D01*
X140456206Y-142772335D01*
X140542452Y-142887544D01*
X140542455Y-142887547D01*
X140657664Y-142973793D01*
X140657671Y-142973797D01*
X140792517Y-143024091D01*
X140792516Y-143024091D01*
X140799444Y-143024835D01*
X140852127Y-143030500D01*
X142947872Y-143030499D01*
X143007483Y-143024091D01*
X143142331Y-142973796D01*
X143257546Y-142887546D01*
X143343796Y-142772331D01*
X143394091Y-142637483D01*
X143400500Y-142577873D01*
X143400499Y-141482128D01*
X143394091Y-141422517D01*
X143386608Y-141402455D01*
X143343797Y-141287671D01*
X143343793Y-141287664D01*
X143257547Y-141172455D01*
X143257544Y-141172452D01*
X143142335Y-141086206D01*
X143142328Y-141086202D01*
X143007482Y-141035908D01*
X143007483Y-141035908D01*
X142947883Y-141029501D01*
X142947881Y-141029500D01*
X142947873Y-141029500D01*
X142947864Y-141029500D01*
X140852129Y-141029500D01*
X140852123Y-141029501D01*
X140792516Y-141035908D01*
X140657671Y-141086202D01*
X140657664Y-141086206D01*
X140542455Y-141172452D01*
X140542452Y-141172455D01*
X140456206Y-141287664D01*
X140456202Y-141287671D01*
X140405908Y-141422517D01*
X140399501Y-141482116D01*
X140399501Y-141482123D01*
X140399500Y-141482135D01*
X140399500Y-142577870D01*
X134651370Y-142577870D01*
X132111370Y-140037870D01*
X143699500Y-140037870D01*
X143699501Y-140037876D01*
X143705908Y-140097483D01*
X143756202Y-140232328D01*
X143756206Y-140232335D01*
X143842452Y-140347544D01*
X143842455Y-140347547D01*
X143957664Y-140433793D01*
X143957671Y-140433797D01*
X144092517Y-140484091D01*
X144092516Y-140484091D01*
X144099444Y-140484835D01*
X144152127Y-140490500D01*
X146247872Y-140490499D01*
X146307483Y-140484091D01*
X146442331Y-140433796D01*
X146557546Y-140347546D01*
X146643796Y-140232331D01*
X146694091Y-140097483D01*
X146700500Y-140037873D01*
X146700499Y-138942128D01*
X146694091Y-138882517D01*
X146686608Y-138862455D01*
X146643797Y-138747671D01*
X146643793Y-138747664D01*
X146557547Y-138632455D01*
X146557544Y-138632452D01*
X146442335Y-138546206D01*
X146442328Y-138546202D01*
X146307482Y-138495908D01*
X146307483Y-138495908D01*
X146247883Y-138489501D01*
X146247881Y-138489500D01*
X146247873Y-138489500D01*
X146247864Y-138489500D01*
X144152129Y-138489500D01*
X144152123Y-138489501D01*
X144092516Y-138495908D01*
X143957671Y-138546202D01*
X143957664Y-138546206D01*
X143842455Y-138632452D01*
X143842452Y-138632455D01*
X143756206Y-138747664D01*
X143756202Y-138747671D01*
X143705908Y-138882517D01*
X143699501Y-138942116D01*
X143699501Y-138942123D01*
X143699500Y-138942135D01*
X143699500Y-140037870D01*
X132111370Y-140037870D01*
X129273500Y-137200000D01*
X140400000Y-137200000D01*
X140400000Y-137497844D01*
X140406401Y-137557372D01*
X140406403Y-137557379D01*
X140456645Y-137692086D01*
X140456649Y-137692093D01*
X140542809Y-137807187D01*
X140542812Y-137807190D01*
X140657906Y-137893350D01*
X140657913Y-137893354D01*
X140792620Y-137943596D01*
X140792627Y-137943598D01*
X140852155Y-137949999D01*
X140852172Y-137950000D01*
X141650000Y-137950000D01*
X141650000Y-137200000D01*
X142150000Y-137200000D01*
X142150000Y-137950000D01*
X142947828Y-137950000D01*
X142947844Y-137949999D01*
X143007372Y-137943598D01*
X143007379Y-137943596D01*
X143142086Y-137893354D01*
X143142093Y-137893350D01*
X143257187Y-137807190D01*
X143257190Y-137807187D01*
X143343350Y-137692093D01*
X143343354Y-137692086D01*
X143393596Y-137557379D01*
X143393598Y-137557372D01*
X143399999Y-137497844D01*
X143400000Y-137497827D01*
X143400000Y-137200000D01*
X142150000Y-137200000D01*
X141650000Y-137200000D01*
X140400000Y-137200000D01*
X129273500Y-137200000D01*
X128773500Y-136700000D01*
X140400000Y-136700000D01*
X141650000Y-136700000D01*
X141650000Y-135950000D01*
X142150000Y-135950000D01*
X142150000Y-136700000D01*
X143400000Y-136700000D01*
X143400000Y-136402172D01*
X143399999Y-136402155D01*
X143393598Y-136342627D01*
X143393596Y-136342620D01*
X143343354Y-136207913D01*
X143343350Y-136207906D01*
X143257190Y-136092812D01*
X143257187Y-136092809D01*
X143142093Y-136006649D01*
X143142086Y-136006645D01*
X143007379Y-135956403D01*
X143007372Y-135956401D01*
X142947844Y-135950000D01*
X142150000Y-135950000D01*
X141650000Y-135950000D01*
X140852155Y-135950000D01*
X140792627Y-135956401D01*
X140792620Y-135956403D01*
X140657913Y-136006645D01*
X140657906Y-136006649D01*
X140542812Y-136092809D01*
X140542809Y-136092812D01*
X140456649Y-136207906D01*
X140456645Y-136207913D01*
X140406403Y-136342620D01*
X140406401Y-136342627D01*
X140400000Y-136402155D01*
X140400000Y-136700000D01*
X128773500Y-136700000D01*
X127031370Y-134957870D01*
X143699500Y-134957870D01*
X143699501Y-134957876D01*
X143705908Y-135017483D01*
X143756202Y-135152328D01*
X143756206Y-135152335D01*
X143842452Y-135267544D01*
X143842455Y-135267547D01*
X143957664Y-135353793D01*
X143957671Y-135353797D01*
X144092517Y-135404091D01*
X144092516Y-135404091D01*
X144099444Y-135404835D01*
X144152127Y-135410500D01*
X146247872Y-135410499D01*
X146307483Y-135404091D01*
X146442331Y-135353796D01*
X146557546Y-135267546D01*
X146643796Y-135152331D01*
X146694091Y-135017483D01*
X146700500Y-134957873D01*
X146700499Y-133862128D01*
X146694091Y-133802517D01*
X146686608Y-133782455D01*
X146643797Y-133667671D01*
X146643793Y-133667664D01*
X146557547Y-133552455D01*
X146557544Y-133552452D01*
X146442335Y-133466206D01*
X146442328Y-133466202D01*
X146307482Y-133415908D01*
X146307483Y-133415908D01*
X146247883Y-133409501D01*
X146247881Y-133409500D01*
X146247873Y-133409500D01*
X146247864Y-133409500D01*
X144152129Y-133409500D01*
X144152123Y-133409501D01*
X144092516Y-133415908D01*
X143957671Y-133466202D01*
X143957664Y-133466206D01*
X143842455Y-133552452D01*
X143842452Y-133552455D01*
X143756206Y-133667664D01*
X143756202Y-133667671D01*
X143705908Y-133802517D01*
X143699501Y-133862116D01*
X143699501Y-133862123D01*
X143699500Y-133862135D01*
X143699500Y-134957870D01*
X127031370Y-134957870D01*
X125236819Y-133163319D01*
X125203334Y-133101996D01*
X125200500Y-133075638D01*
X125200500Y-132177870D01*
X140399500Y-132177870D01*
X140399501Y-132177876D01*
X140405908Y-132237483D01*
X140456202Y-132372328D01*
X140456206Y-132372335D01*
X140542452Y-132487544D01*
X140542455Y-132487547D01*
X140657664Y-132573793D01*
X140657671Y-132573797D01*
X140792517Y-132624091D01*
X140792516Y-132624091D01*
X140799444Y-132624835D01*
X140852127Y-132630500D01*
X142947872Y-132630499D01*
X143007483Y-132624091D01*
X143142331Y-132573796D01*
X143257546Y-132487546D01*
X143343796Y-132372331D01*
X143394091Y-132237483D01*
X143400500Y-132177873D01*
X143400499Y-131082128D01*
X143394091Y-131022517D01*
X143343796Y-130887669D01*
X143343795Y-130887668D01*
X143343793Y-130887664D01*
X143257547Y-130772455D01*
X143257544Y-130772452D01*
X143142335Y-130686206D01*
X143142328Y-130686202D01*
X143007482Y-130635908D01*
X143007483Y-130635908D01*
X142947883Y-130629501D01*
X142947881Y-130629500D01*
X142947873Y-130629500D01*
X142947864Y-130629500D01*
X140852129Y-130629500D01*
X140852123Y-130629501D01*
X140792516Y-130635908D01*
X140657671Y-130686202D01*
X140657664Y-130686206D01*
X140542455Y-130772452D01*
X140542452Y-130772455D01*
X140456206Y-130887664D01*
X140456202Y-130887671D01*
X140405908Y-131022517D01*
X140401608Y-131062516D01*
X140399501Y-131082123D01*
X140399500Y-131082135D01*
X140399500Y-132177870D01*
X125200500Y-132177870D01*
X125200500Y-129637870D01*
X143699500Y-129637870D01*
X143699501Y-129637876D01*
X143705908Y-129697483D01*
X143756202Y-129832328D01*
X143756206Y-129832335D01*
X143842452Y-129947544D01*
X143842455Y-129947547D01*
X143957664Y-130033793D01*
X143957671Y-130033797D01*
X144092517Y-130084091D01*
X144092516Y-130084091D01*
X144099444Y-130084835D01*
X144152127Y-130090500D01*
X146247872Y-130090499D01*
X146307483Y-130084091D01*
X146442331Y-130033796D01*
X146557546Y-129947546D01*
X146643796Y-129832331D01*
X146694091Y-129697483D01*
X146700500Y-129637873D01*
X146700499Y-128542128D01*
X146694091Y-128482517D01*
X146643796Y-128347669D01*
X146643795Y-128347668D01*
X146643793Y-128347664D01*
X146557547Y-128232455D01*
X146557544Y-128232452D01*
X146442335Y-128146206D01*
X146442328Y-128146202D01*
X146307482Y-128095908D01*
X146307483Y-128095908D01*
X146247883Y-128089501D01*
X146247881Y-128089500D01*
X146247873Y-128089500D01*
X146247864Y-128089500D01*
X144152129Y-128089500D01*
X144152123Y-128089501D01*
X144092516Y-128095908D01*
X143957671Y-128146202D01*
X143957664Y-128146206D01*
X143842455Y-128232452D01*
X143842452Y-128232455D01*
X143756206Y-128347664D01*
X143756202Y-128347671D01*
X143705908Y-128482517D01*
X143701608Y-128522516D01*
X143699501Y-128542123D01*
X143699500Y-128542135D01*
X143699500Y-129637870D01*
X125200500Y-129637870D01*
X125200500Y-127097870D01*
X140399500Y-127097870D01*
X140399501Y-127097876D01*
X140405908Y-127157483D01*
X140456202Y-127292328D01*
X140456206Y-127292335D01*
X140542452Y-127407544D01*
X140542455Y-127407547D01*
X140657664Y-127493793D01*
X140657671Y-127493797D01*
X140792517Y-127544091D01*
X140792516Y-127544091D01*
X140799444Y-127544835D01*
X140852127Y-127550500D01*
X142947872Y-127550499D01*
X143007483Y-127544091D01*
X143142331Y-127493796D01*
X143257546Y-127407546D01*
X143343796Y-127292331D01*
X143394091Y-127157483D01*
X143400500Y-127097873D01*
X143400499Y-126002128D01*
X143394091Y-125942517D01*
X143343796Y-125807669D01*
X143343795Y-125807668D01*
X143343793Y-125807664D01*
X143257547Y-125692455D01*
X143257544Y-125692452D01*
X143142335Y-125606206D01*
X143142328Y-125606202D01*
X143007482Y-125555908D01*
X143007483Y-125555908D01*
X142947883Y-125549501D01*
X142947881Y-125549500D01*
X142947873Y-125549500D01*
X142947864Y-125549500D01*
X140852129Y-125549500D01*
X140852123Y-125549501D01*
X140792516Y-125555908D01*
X140657671Y-125606202D01*
X140657664Y-125606206D01*
X140542455Y-125692452D01*
X140542452Y-125692455D01*
X140456206Y-125807664D01*
X140456202Y-125807671D01*
X140405908Y-125942517D01*
X140401608Y-125982516D01*
X140399501Y-126002123D01*
X140399500Y-126002135D01*
X140399500Y-127097870D01*
X125200500Y-127097870D01*
X125200500Y-124260000D01*
X143700000Y-124260000D01*
X143700000Y-124557844D01*
X143706401Y-124617372D01*
X143706403Y-124617379D01*
X143756645Y-124752086D01*
X143756649Y-124752093D01*
X143842809Y-124867187D01*
X143842812Y-124867190D01*
X143957906Y-124953350D01*
X143957913Y-124953354D01*
X144092620Y-125003596D01*
X144092627Y-125003598D01*
X144152155Y-125009999D01*
X144152172Y-125010000D01*
X144950000Y-125010000D01*
X144950000Y-124260000D01*
X145450000Y-124260000D01*
X145450000Y-125010000D01*
X146247828Y-125010000D01*
X146247844Y-125009999D01*
X146307372Y-125003598D01*
X146307379Y-125003596D01*
X146442086Y-124953354D01*
X146442093Y-124953350D01*
X146557187Y-124867190D01*
X146557190Y-124867187D01*
X146643350Y-124752093D01*
X146643354Y-124752086D01*
X146693596Y-124617379D01*
X146693598Y-124617372D01*
X146699999Y-124557844D01*
X146700000Y-124557827D01*
X146700000Y-124260000D01*
X145450000Y-124260000D01*
X144950000Y-124260000D01*
X143700000Y-124260000D01*
X125200500Y-124260000D01*
X125200500Y-123760000D01*
X143700000Y-123760000D01*
X144950000Y-123760000D01*
X144950000Y-123010000D01*
X145450000Y-123010000D01*
X145450000Y-123760000D01*
X146700000Y-123760000D01*
X146700000Y-123462172D01*
X146699999Y-123462155D01*
X146693598Y-123402627D01*
X146693596Y-123402620D01*
X146643354Y-123267913D01*
X146643350Y-123267906D01*
X146557190Y-123152812D01*
X146557187Y-123152809D01*
X146442093Y-123066649D01*
X146442086Y-123066645D01*
X146307379Y-123016403D01*
X146307372Y-123016401D01*
X146247844Y-123010000D01*
X145450000Y-123010000D01*
X144950000Y-123010000D01*
X144152155Y-123010000D01*
X144092627Y-123016401D01*
X144092620Y-123016403D01*
X143957913Y-123066645D01*
X143957906Y-123066649D01*
X143842812Y-123152809D01*
X143842809Y-123152812D01*
X143756649Y-123267906D01*
X143756645Y-123267913D01*
X143706403Y-123402620D01*
X143706401Y-123402627D01*
X143700000Y-123462155D01*
X143700000Y-123760000D01*
X125200500Y-123760000D01*
X125200500Y-121797870D01*
X140299500Y-121797870D01*
X140299501Y-121797876D01*
X140305908Y-121857483D01*
X140356202Y-121992328D01*
X140356206Y-121992335D01*
X140442452Y-122107544D01*
X140442455Y-122107547D01*
X140557664Y-122193793D01*
X140557671Y-122193797D01*
X140692517Y-122244091D01*
X140692516Y-122244091D01*
X140699444Y-122244835D01*
X140752127Y-122250500D01*
X142847872Y-122250499D01*
X142907483Y-122244091D01*
X143042331Y-122193796D01*
X143157546Y-122107546D01*
X143243796Y-121992331D01*
X143294091Y-121857483D01*
X143300500Y-121797873D01*
X143300499Y-120702128D01*
X143294091Y-120642517D01*
X143275442Y-120592517D01*
X143243797Y-120507671D01*
X143243793Y-120507664D01*
X143157547Y-120392455D01*
X143157544Y-120392452D01*
X143042335Y-120306206D01*
X143042328Y-120306202D01*
X142907482Y-120255908D01*
X142907483Y-120255908D01*
X142847883Y-120249501D01*
X142847881Y-120249500D01*
X142847873Y-120249500D01*
X142847864Y-120249500D01*
X140752129Y-120249500D01*
X140752123Y-120249501D01*
X140692516Y-120255908D01*
X140557671Y-120306202D01*
X140557664Y-120306206D01*
X140442455Y-120392452D01*
X140442452Y-120392455D01*
X140356206Y-120507664D01*
X140356202Y-120507671D01*
X140305908Y-120642517D01*
X140299501Y-120702116D01*
X140299501Y-120702123D01*
X140299500Y-120702135D01*
X140299500Y-121797870D01*
X125200500Y-121797870D01*
X125200500Y-120024499D01*
X125220185Y-119957460D01*
X125272989Y-119911705D01*
X125324500Y-119900499D01*
X125597871Y-119900499D01*
X125597872Y-119900499D01*
X125657483Y-119894091D01*
X125792331Y-119843796D01*
X125907546Y-119757546D01*
X125993796Y-119642331D01*
X126044091Y-119507483D01*
X126050500Y-119447873D01*
X126050500Y-119257870D01*
X143599500Y-119257870D01*
X143599501Y-119257876D01*
X143605908Y-119317483D01*
X143656202Y-119452328D01*
X143656206Y-119452335D01*
X143742452Y-119567544D01*
X143742455Y-119567547D01*
X143857664Y-119653793D01*
X143857671Y-119653797D01*
X143992517Y-119704091D01*
X143992516Y-119704091D01*
X143999444Y-119704835D01*
X144052127Y-119710500D01*
X146147872Y-119710499D01*
X146207483Y-119704091D01*
X146342331Y-119653796D01*
X146457546Y-119567546D01*
X146543796Y-119452331D01*
X146594091Y-119317483D01*
X146600500Y-119257873D01*
X146600499Y-118162128D01*
X146594091Y-118102517D01*
X146575442Y-118052517D01*
X146543797Y-117967671D01*
X146543793Y-117967664D01*
X146457547Y-117852455D01*
X146457544Y-117852452D01*
X146342335Y-117766206D01*
X146342328Y-117766202D01*
X146207482Y-117715908D01*
X146207483Y-117715908D01*
X146147883Y-117709501D01*
X146147881Y-117709500D01*
X146147873Y-117709500D01*
X146147864Y-117709500D01*
X144052129Y-117709500D01*
X144052123Y-117709501D01*
X143992516Y-117715908D01*
X143857671Y-117766202D01*
X143857664Y-117766206D01*
X143742455Y-117852452D01*
X143742452Y-117852455D01*
X143656206Y-117967664D01*
X143656202Y-117967671D01*
X143605908Y-118102517D01*
X143599501Y-118162116D01*
X143599501Y-118162123D01*
X143599500Y-118162135D01*
X143599500Y-119257870D01*
X126050500Y-119257870D01*
X126050499Y-117652128D01*
X126044091Y-117592517D01*
X125993796Y-117457669D01*
X125916421Y-117354309D01*
X125892004Y-117288848D01*
X125906855Y-117220575D01*
X125916416Y-117205696D01*
X125993796Y-117102331D01*
X126044091Y-116967483D01*
X126050500Y-116907873D01*
X126050500Y-116834500D01*
X126070185Y-116767461D01*
X126122989Y-116721706D01*
X126140622Y-116717870D01*
X140299500Y-116717870D01*
X140299501Y-116717876D01*
X140305908Y-116777483D01*
X140356202Y-116912328D01*
X140356206Y-116912335D01*
X140442452Y-117027544D01*
X140442455Y-117027547D01*
X140557664Y-117113793D01*
X140557671Y-117113797D01*
X140692517Y-117164091D01*
X140692516Y-117164091D01*
X140699444Y-117164835D01*
X140752127Y-117170500D01*
X142847872Y-117170499D01*
X142907483Y-117164091D01*
X143042331Y-117113796D01*
X143157546Y-117027546D01*
X143243796Y-116912331D01*
X143294091Y-116777483D01*
X143300500Y-116717873D01*
X143300499Y-115622128D01*
X143294091Y-115562517D01*
X143275442Y-115512517D01*
X143243797Y-115427671D01*
X143243793Y-115427664D01*
X143157547Y-115312455D01*
X143157544Y-115312452D01*
X143042335Y-115226206D01*
X143042328Y-115226202D01*
X142907482Y-115175908D01*
X142907483Y-115175908D01*
X142847883Y-115169501D01*
X142847881Y-115169500D01*
X142847873Y-115169500D01*
X142847864Y-115169500D01*
X140752129Y-115169500D01*
X140752123Y-115169501D01*
X140692516Y-115175908D01*
X140557671Y-115226202D01*
X140557664Y-115226206D01*
X140442455Y-115312452D01*
X140442452Y-115312455D01*
X140356206Y-115427664D01*
X140356202Y-115427671D01*
X140305908Y-115562517D01*
X140304029Y-115580000D01*
X140299501Y-115622123D01*
X140299500Y-115622135D01*
X140299500Y-116717870D01*
X126140622Y-116717870D01*
X126174500Y-116710500D01*
X126378996Y-116710500D01*
X126470040Y-116692389D01*
X126514328Y-116683580D01*
X126578069Y-116657177D01*
X126641807Y-116630777D01*
X126641808Y-116630776D01*
X126641811Y-116630775D01*
X126756543Y-116554114D01*
X129132787Y-114177870D01*
X143599500Y-114177870D01*
X143599501Y-114177876D01*
X143605908Y-114237483D01*
X143656202Y-114372328D01*
X143656206Y-114372335D01*
X143742452Y-114487544D01*
X143742455Y-114487547D01*
X143857664Y-114573793D01*
X143857671Y-114573797D01*
X143992517Y-114624091D01*
X143992516Y-114624091D01*
X143999444Y-114624835D01*
X144052127Y-114630500D01*
X146147872Y-114630499D01*
X146207483Y-114624091D01*
X146342331Y-114573796D01*
X146457546Y-114487546D01*
X146543796Y-114372331D01*
X146594091Y-114237483D01*
X146600500Y-114177873D01*
X146600499Y-113082128D01*
X146594091Y-113022517D01*
X146575442Y-112972517D01*
X146543797Y-112887671D01*
X146543793Y-112887664D01*
X146457547Y-112772455D01*
X146457544Y-112772452D01*
X146342335Y-112686206D01*
X146342328Y-112686202D01*
X146207482Y-112635908D01*
X146207483Y-112635908D01*
X146147883Y-112629501D01*
X146147881Y-112629500D01*
X146147873Y-112629500D01*
X146147864Y-112629500D01*
X144052129Y-112629500D01*
X144052123Y-112629501D01*
X143992516Y-112635908D01*
X143857671Y-112686202D01*
X143857664Y-112686206D01*
X143742455Y-112772452D01*
X143742452Y-112772455D01*
X143656206Y-112887664D01*
X143656202Y-112887671D01*
X143605908Y-113022517D01*
X143600481Y-113073000D01*
X143599501Y-113082123D01*
X143599500Y-113082135D01*
X143599500Y-114177870D01*
X129132787Y-114177870D01*
X132420656Y-110890000D01*
X140350000Y-110890000D01*
X140350000Y-111187844D01*
X140356401Y-111247372D01*
X140356403Y-111247379D01*
X140406645Y-111382086D01*
X140406649Y-111382093D01*
X140492809Y-111497187D01*
X140492812Y-111497190D01*
X140607906Y-111583350D01*
X140607913Y-111583354D01*
X140742620Y-111633596D01*
X140742627Y-111633598D01*
X140802155Y-111639999D01*
X140802172Y-111640000D01*
X141600000Y-111640000D01*
X141600000Y-110890000D01*
X142100000Y-110890000D01*
X142100000Y-111640000D01*
X142897828Y-111640000D01*
X142897844Y-111639999D01*
X142957372Y-111633598D01*
X142957379Y-111633596D01*
X143092086Y-111583354D01*
X143092093Y-111583350D01*
X143207187Y-111497190D01*
X143207190Y-111497187D01*
X143293350Y-111382093D01*
X143293354Y-111382086D01*
X143343596Y-111247379D01*
X143343598Y-111247372D01*
X143349999Y-111187844D01*
X143350000Y-111187827D01*
X143350000Y-110890000D01*
X142100000Y-110890000D01*
X141600000Y-110890000D01*
X140350000Y-110890000D01*
X132420656Y-110890000D01*
X132920656Y-110390000D01*
X140350000Y-110390000D01*
X141600000Y-110390000D01*
X141600000Y-109640000D01*
X142100000Y-109640000D01*
X142100000Y-110390000D01*
X143350000Y-110390000D01*
X143350000Y-110092172D01*
X143349999Y-110092155D01*
X143343598Y-110032627D01*
X143343596Y-110032620D01*
X143293354Y-109897913D01*
X143293350Y-109897906D01*
X143207190Y-109782812D01*
X143207187Y-109782809D01*
X143092093Y-109696649D01*
X143092086Y-109696645D01*
X142957379Y-109646403D01*
X142957372Y-109646401D01*
X142897844Y-109640000D01*
X142100000Y-109640000D01*
X141600000Y-109640000D01*
X140802155Y-109640000D01*
X140742627Y-109646401D01*
X140742620Y-109646403D01*
X140607913Y-109696645D01*
X140607906Y-109696649D01*
X140492812Y-109782809D01*
X140492809Y-109782812D01*
X140406649Y-109897906D01*
X140406645Y-109897913D01*
X140356403Y-110032620D01*
X140356401Y-110032627D01*
X140350000Y-110092155D01*
X140350000Y-110390000D01*
X132920656Y-110390000D01*
X134662786Y-108647870D01*
X143649500Y-108647870D01*
X143649501Y-108647876D01*
X143655908Y-108707483D01*
X143706202Y-108842328D01*
X143706206Y-108842335D01*
X143792452Y-108957544D01*
X143792455Y-108957547D01*
X143907664Y-109043793D01*
X143907671Y-109043797D01*
X144042517Y-109094091D01*
X144042516Y-109094091D01*
X144049444Y-109094835D01*
X144102127Y-109100500D01*
X146197872Y-109100499D01*
X146257483Y-109094091D01*
X146392331Y-109043796D01*
X146507546Y-108957546D01*
X146593796Y-108842331D01*
X146644091Y-108707483D01*
X146650500Y-108647873D01*
X146650499Y-107552128D01*
X146644091Y-107492517D01*
X146593796Y-107357669D01*
X146593795Y-107357668D01*
X146593793Y-107357664D01*
X146507547Y-107242455D01*
X146507544Y-107242452D01*
X146392335Y-107156206D01*
X146392328Y-107156202D01*
X146257482Y-107105908D01*
X146257483Y-107105908D01*
X146197883Y-107099501D01*
X146197881Y-107099500D01*
X146197873Y-107099500D01*
X146197864Y-107099500D01*
X144102129Y-107099500D01*
X144102123Y-107099501D01*
X144042516Y-107105908D01*
X143907671Y-107156202D01*
X143907664Y-107156206D01*
X143792455Y-107242452D01*
X143792452Y-107242455D01*
X143706206Y-107357664D01*
X143706202Y-107357671D01*
X143655908Y-107492517D01*
X143649501Y-107552116D01*
X143649501Y-107552123D01*
X143649500Y-107552135D01*
X143649500Y-108647870D01*
X134662786Y-108647870D01*
X137202785Y-106107870D01*
X140349500Y-106107870D01*
X140349501Y-106107876D01*
X140355908Y-106167483D01*
X140406202Y-106302328D01*
X140406206Y-106302335D01*
X140492452Y-106417544D01*
X140492455Y-106417547D01*
X140607664Y-106503793D01*
X140607671Y-106503797D01*
X140742517Y-106554091D01*
X140742516Y-106554091D01*
X140749444Y-106554835D01*
X140802127Y-106560500D01*
X142897872Y-106560499D01*
X142957483Y-106554091D01*
X143092331Y-106503796D01*
X143207546Y-106417546D01*
X143293796Y-106302331D01*
X143344091Y-106167483D01*
X143350500Y-106107873D01*
X143350499Y-105012128D01*
X143344091Y-104952517D01*
X143293796Y-104817669D01*
X143293795Y-104817668D01*
X143293793Y-104817664D01*
X143207547Y-104702455D01*
X143207544Y-104702452D01*
X143092335Y-104616206D01*
X143092328Y-104616202D01*
X142957482Y-104565908D01*
X142957483Y-104565908D01*
X142897883Y-104559501D01*
X142897881Y-104559500D01*
X142897873Y-104559500D01*
X142897864Y-104559500D01*
X140802129Y-104559500D01*
X140802123Y-104559501D01*
X140742516Y-104565908D01*
X140607671Y-104616202D01*
X140607664Y-104616206D01*
X140492455Y-104702452D01*
X140492452Y-104702455D01*
X140406206Y-104817664D01*
X140406202Y-104817671D01*
X140355908Y-104952517D01*
X140349501Y-105012116D01*
X140349501Y-105012123D01*
X140349500Y-105012135D01*
X140349500Y-106107870D01*
X137202785Y-106107870D01*
X139742784Y-103567870D01*
X143649500Y-103567870D01*
X143649501Y-103567876D01*
X143655908Y-103627483D01*
X143706202Y-103762328D01*
X143706206Y-103762335D01*
X143792452Y-103877544D01*
X143792455Y-103877547D01*
X143907664Y-103963793D01*
X143907671Y-103963797D01*
X144042517Y-104014091D01*
X144042516Y-104014091D01*
X144049444Y-104014835D01*
X144102127Y-104020500D01*
X146197872Y-104020499D01*
X146257483Y-104014091D01*
X146392331Y-103963796D01*
X146507546Y-103877546D01*
X146593796Y-103762331D01*
X146644091Y-103627483D01*
X146650500Y-103567873D01*
X146650499Y-102472128D01*
X146644091Y-102412517D01*
X146631173Y-102377883D01*
X146593797Y-102277671D01*
X146593793Y-102277664D01*
X146507547Y-102162455D01*
X146507544Y-102162452D01*
X146392335Y-102076206D01*
X146392328Y-102076202D01*
X146257482Y-102025908D01*
X146257483Y-102025908D01*
X146197883Y-102019501D01*
X146197881Y-102019500D01*
X146197873Y-102019500D01*
X146197864Y-102019500D01*
X144102129Y-102019500D01*
X144102123Y-102019501D01*
X144042516Y-102025908D01*
X143907671Y-102076202D01*
X143907664Y-102076206D01*
X143792455Y-102162452D01*
X143792452Y-102162455D01*
X143706206Y-102277664D01*
X143706202Y-102277671D01*
X143655908Y-102412517D01*
X143649501Y-102472116D01*
X143649501Y-102472123D01*
X143649500Y-102472135D01*
X143649500Y-103567870D01*
X139742784Y-103567870D01*
X141853837Y-101456817D01*
X141915160Y-101423333D01*
X141941518Y-101420499D01*
X142947871Y-101420499D01*
X142947872Y-101420499D01*
X143007483Y-101414091D01*
X143142331Y-101363796D01*
X143257546Y-101277546D01*
X143343796Y-101162331D01*
X143394091Y-101027483D01*
X143400500Y-100967873D01*
X143400499Y-99872128D01*
X143394091Y-99812517D01*
X143384882Y-99787827D01*
X143343797Y-99677671D01*
X143343793Y-99677664D01*
X143257547Y-99562455D01*
X143257544Y-99562452D01*
X143142335Y-99476206D01*
X143142328Y-99476202D01*
X143007482Y-99425908D01*
X143007483Y-99425908D01*
X142947883Y-99419501D01*
X142947881Y-99419500D01*
X142947873Y-99419500D01*
X142947865Y-99419500D01*
X141410518Y-99419500D01*
X141343479Y-99399815D01*
X141297724Y-99347011D01*
X141287780Y-99277853D01*
X141316805Y-99214297D01*
X141322837Y-99207819D01*
X142400656Y-98130000D01*
X143700000Y-98130000D01*
X143700000Y-98427844D01*
X143706401Y-98487372D01*
X143706403Y-98487379D01*
X143756645Y-98622086D01*
X143756649Y-98622093D01*
X143842809Y-98737187D01*
X143842812Y-98737190D01*
X143957906Y-98823350D01*
X143957913Y-98823354D01*
X144092620Y-98873596D01*
X144092627Y-98873598D01*
X144152155Y-98879999D01*
X144152172Y-98880000D01*
X144950000Y-98880000D01*
X144950000Y-98130000D01*
X145450000Y-98130000D01*
X145450000Y-98880000D01*
X146247828Y-98880000D01*
X146247844Y-98879999D01*
X146307372Y-98873598D01*
X146307379Y-98873596D01*
X146442086Y-98823354D01*
X146442093Y-98823350D01*
X146557187Y-98737190D01*
X146557190Y-98737187D01*
X146643350Y-98622093D01*
X146643354Y-98622086D01*
X146693596Y-98487379D01*
X146693598Y-98487372D01*
X146699999Y-98427844D01*
X146700000Y-98427827D01*
X146700000Y-98130000D01*
X145450000Y-98130000D01*
X144950000Y-98130000D01*
X143700000Y-98130000D01*
X142400656Y-98130000D01*
X142900656Y-97630000D01*
X143700000Y-97630000D01*
X144950000Y-97630000D01*
X144950000Y-96880000D01*
X145450000Y-96880000D01*
X145450000Y-97630000D01*
X146700000Y-97630000D01*
X146700000Y-97332172D01*
X146699999Y-97332155D01*
X146693598Y-97272627D01*
X146693596Y-97272620D01*
X146643354Y-97137913D01*
X146643350Y-97137906D01*
X146557190Y-97022812D01*
X146557187Y-97022809D01*
X146442093Y-96936649D01*
X146442086Y-96936645D01*
X146307379Y-96886403D01*
X146307372Y-96886401D01*
X146247844Y-96880000D01*
X145450000Y-96880000D01*
X144950000Y-96880000D01*
X144152155Y-96880000D01*
X144092627Y-96886401D01*
X144092620Y-96886403D01*
X143957913Y-96936645D01*
X143957910Y-96936647D01*
X143898398Y-96981198D01*
X143832933Y-97005615D01*
X143823790Y-97003626D01*
X143810763Y-97063514D01*
X143801198Y-97078398D01*
X143756647Y-97137910D01*
X143756645Y-97137913D01*
X143706403Y-97272620D01*
X143706401Y-97272627D01*
X143700000Y-97332155D01*
X143700000Y-97630000D01*
X142900656Y-97630000D01*
X143418036Y-97112620D01*
X143614251Y-96916405D01*
X143675573Y-96882921D01*
X143702968Y-96884880D01*
X143700403Y-96873085D01*
X143724820Y-96807621D01*
X143736402Y-96794254D01*
X145744114Y-94786543D01*
X145820775Y-94671811D01*
X145873580Y-94544328D01*
X145882389Y-94500040D01*
X145900500Y-94408996D01*
X145900500Y-93924499D01*
X145920185Y-93857460D01*
X145972989Y-93811705D01*
X146024500Y-93800499D01*
X146247871Y-93800499D01*
X146247872Y-93800499D01*
X146307483Y-93794091D01*
X146442331Y-93743796D01*
X146557546Y-93657546D01*
X146643796Y-93542331D01*
X146694091Y-93407483D01*
X146700500Y-93347873D01*
X146700499Y-92252128D01*
X146694091Y-92192517D01*
X146656648Y-92092128D01*
X146643797Y-92057671D01*
X146643793Y-92057664D01*
X146557547Y-91942455D01*
X146557544Y-91942452D01*
X146442335Y-91856206D01*
X146442328Y-91856202D01*
X146307482Y-91805908D01*
X146307483Y-91805908D01*
X146247883Y-91799501D01*
X146247881Y-91799500D01*
X146247873Y-91799500D01*
X146247864Y-91799500D01*
X144152129Y-91799500D01*
X144152123Y-91799501D01*
X144092516Y-91805908D01*
X143957671Y-91856202D01*
X143957664Y-91856206D01*
X143842455Y-91942452D01*
X143842452Y-91942455D01*
X143756206Y-92057664D01*
X143756202Y-92057671D01*
X143705908Y-92192517D01*
X143699501Y-92252116D01*
X143699501Y-92252123D01*
X143699500Y-92252135D01*
X143699500Y-93347870D01*
X143699501Y-93347876D01*
X143705908Y-93407483D01*
X143756202Y-93542328D01*
X143756206Y-93542335D01*
X143842452Y-93657544D01*
X143842455Y-93657547D01*
X143957664Y-93743793D01*
X143957671Y-93743797D01*
X144002618Y-93760561D01*
X144092517Y-93794091D01*
X144152127Y-93800500D01*
X144375500Y-93800499D01*
X144442539Y-93820183D01*
X144488294Y-93872987D01*
X144499500Y-93924499D01*
X144499500Y-93998480D01*
X144479815Y-94065519D01*
X144463181Y-94086161D01*
X143612180Y-94937162D01*
X143550857Y-94970647D01*
X143481165Y-94965663D01*
X143425232Y-94923791D01*
X143400815Y-94858327D01*
X143400499Y-94849481D01*
X143400499Y-94792129D01*
X143400498Y-94792123D01*
X143400497Y-94792116D01*
X143394091Y-94732517D01*
X143356648Y-94632128D01*
X143343797Y-94597671D01*
X143343793Y-94597664D01*
X143257547Y-94482455D01*
X143257544Y-94482452D01*
X143142335Y-94396206D01*
X143142328Y-94396202D01*
X143007482Y-94345908D01*
X143007483Y-94345908D01*
X142947883Y-94339501D01*
X142947881Y-94339500D01*
X142947873Y-94339500D01*
X142947864Y-94339500D01*
X140852129Y-94339500D01*
X140852123Y-94339501D01*
X140792516Y-94345908D01*
X140657671Y-94396202D01*
X140657664Y-94396206D01*
X140542455Y-94482452D01*
X140542452Y-94482455D01*
X140456206Y-94597664D01*
X140456202Y-94597671D01*
X140405908Y-94732517D01*
X140400100Y-94786543D01*
X140399501Y-94792123D01*
X140399500Y-94792135D01*
X140399500Y-95798480D01*
X140379815Y-95865519D01*
X140363181Y-95886161D01*
X138046162Y-98203181D01*
X137984839Y-98236666D01*
X137958481Y-98239500D01*
X126674499Y-98239500D01*
X126607460Y-98219815D01*
X126561705Y-98167011D01*
X126550499Y-98115500D01*
X126550499Y-98042129D01*
X126550498Y-98042123D01*
X126550497Y-98042116D01*
X126544091Y-97982517D01*
X126539422Y-97970000D01*
X126493797Y-97847671D01*
X126493795Y-97847668D01*
X126416421Y-97744309D01*
X126392004Y-97678848D01*
X126406855Y-97610575D01*
X126416416Y-97595696D01*
X126493796Y-97492331D01*
X126512446Y-97442328D01*
X126535258Y-97381167D01*
X126577129Y-97325233D01*
X126642593Y-97300816D01*
X126651440Y-97300500D01*
X126938693Y-97300500D01*
X126938694Y-97300499D01*
X127112666Y-97265895D01*
X127194606Y-97231953D01*
X127276547Y-97198013D01*
X127276549Y-97198011D01*
X127276552Y-97198010D01*
X127364955Y-97138939D01*
X127364955Y-97138938D01*
X127364959Y-97138936D01*
X127424036Y-97099464D01*
X134786681Y-89736819D01*
X134848004Y-89703334D01*
X134874362Y-89700500D01*
X155375500Y-89700500D01*
X155442539Y-89720185D01*
G37*
G04 #@! TD.AperFunction*
G04 #@! TA.AperFunction,Conductor*
G36*
X193003736Y-86500726D02*
G01*
X193293796Y-86518271D01*
X193308659Y-86520076D01*
X193590798Y-86571780D01*
X193605335Y-86575363D01*
X193879172Y-86660695D01*
X193893163Y-86666000D01*
X194154743Y-86783727D01*
X194167989Y-86790680D01*
X194413465Y-86939075D01*
X194425776Y-86947573D01*
X194651573Y-87124473D01*
X194662781Y-87134403D01*
X194865596Y-87337218D01*
X194875526Y-87348426D01*
X194995481Y-87501538D01*
X195052422Y-87574217D01*
X195060928Y-87586540D01*
X195209316Y-87832004D01*
X195216275Y-87845263D01*
X195333997Y-88106831D01*
X195339306Y-88120832D01*
X195424635Y-88394663D01*
X195428219Y-88409201D01*
X195479923Y-88691340D01*
X195481728Y-88706205D01*
X195499274Y-88996263D01*
X195499500Y-89003750D01*
X195499500Y-147396249D01*
X195499274Y-147403736D01*
X195481728Y-147693794D01*
X195479923Y-147708659D01*
X195428219Y-147990798D01*
X195424635Y-148005336D01*
X195339306Y-148279167D01*
X195333997Y-148293168D01*
X195216275Y-148554736D01*
X195209316Y-148567995D01*
X195060928Y-148813459D01*
X195052422Y-148825782D01*
X194875526Y-149051573D01*
X194865596Y-149062781D01*
X194662781Y-149265596D01*
X194651573Y-149275526D01*
X194425782Y-149452422D01*
X194413459Y-149460928D01*
X194167995Y-149609316D01*
X194154736Y-149616275D01*
X193893168Y-149733997D01*
X193879167Y-149739306D01*
X193605336Y-149824635D01*
X193590798Y-149828219D01*
X193308659Y-149879923D01*
X193293794Y-149881728D01*
X193003736Y-149899274D01*
X192996249Y-149899500D01*
X187865465Y-149899500D01*
X187798426Y-149879815D01*
X187752671Y-149827011D01*
X187742727Y-149757853D01*
X187771752Y-149694297D01*
X187777784Y-149687819D01*
X187793332Y-149672271D01*
X187793332Y-140904128D01*
X174308033Y-140904128D01*
X174308033Y-149672271D01*
X174323581Y-149687819D01*
X174357066Y-149749142D01*
X174352082Y-149818834D01*
X174310210Y-149874767D01*
X174244746Y-149899184D01*
X174235900Y-149899500D01*
X119003751Y-149899500D01*
X118996264Y-149899274D01*
X118706205Y-149881728D01*
X118691340Y-149879923D01*
X118409201Y-149828219D01*
X118394663Y-149824635D01*
X118120832Y-149739306D01*
X118106831Y-149733997D01*
X117845263Y-149616275D01*
X117832004Y-149609316D01*
X117586540Y-149460928D01*
X117574217Y-149452422D01*
X117348426Y-149275526D01*
X117337218Y-149265596D01*
X117134403Y-149062781D01*
X117124473Y-149051573D01*
X116947573Y-148825776D01*
X116939075Y-148813465D01*
X116790680Y-148567989D01*
X116783727Y-148554743D01*
X116666000Y-148293163D01*
X116660693Y-148279167D01*
X116575364Y-148005336D01*
X116571780Y-147990798D01*
X116520076Y-147708659D01*
X116518271Y-147693794D01*
X116500726Y-147403736D01*
X116500500Y-147396249D01*
X116500500Y-119447870D01*
X122549500Y-119447870D01*
X122549501Y-119447876D01*
X122555908Y-119507483D01*
X122606202Y-119642328D01*
X122606206Y-119642335D01*
X122692452Y-119757544D01*
X122692455Y-119757547D01*
X122807664Y-119843793D01*
X122807671Y-119843797D01*
X122852618Y-119860561D01*
X122942517Y-119894091D01*
X123002127Y-119900500D01*
X123275501Y-119900499D01*
X123342539Y-119920183D01*
X123388294Y-119972987D01*
X123399500Y-120024499D01*
X123399500Y-133588696D01*
X123434103Y-133762658D01*
X123434105Y-133762666D01*
X123468046Y-133844606D01*
X123468046Y-133844607D01*
X123501984Y-133926542D01*
X123501985Y-133926544D01*
X123561063Y-134014960D01*
X123561064Y-134014961D01*
X123600534Y-134074034D01*
X138625966Y-149099466D01*
X138685036Y-149138933D01*
X138685039Y-149138936D01*
X138773449Y-149198010D01*
X138773453Y-149198013D01*
X138855393Y-149231953D01*
X138937334Y-149265895D01*
X139111303Y-149300499D01*
X139111307Y-149300500D01*
X139111308Y-149300500D01*
X148088693Y-149300500D01*
X148088694Y-149300499D01*
X148262666Y-149265895D01*
X148344606Y-149231953D01*
X148426547Y-149198013D01*
X148426549Y-149198011D01*
X148426552Y-149198010D01*
X148514955Y-149138939D01*
X148514955Y-149138938D01*
X148514959Y-149138936D01*
X148574036Y-149099464D01*
X154865630Y-142807870D01*
X161399500Y-142807870D01*
X161399501Y-142807876D01*
X161405908Y-142867483D01*
X161456202Y-143002328D01*
X161456206Y-143002335D01*
X161542452Y-143117544D01*
X161542455Y-143117547D01*
X161657664Y-143203793D01*
X161657671Y-143203797D01*
X161792517Y-143254091D01*
X161792516Y-143254091D01*
X161799444Y-143254835D01*
X161852127Y-143260500D01*
X163947872Y-143260499D01*
X164007483Y-143254091D01*
X164142331Y-143203796D01*
X164257546Y-143117546D01*
X164343796Y-143002331D01*
X164394091Y-142867483D01*
X164400500Y-142807873D01*
X164400499Y-141712128D01*
X164394091Y-141652517D01*
X164343796Y-141517669D01*
X164343795Y-141517668D01*
X164343793Y-141517664D01*
X164257547Y-141402455D01*
X164257544Y-141402452D01*
X164142335Y-141316206D01*
X164142328Y-141316202D01*
X164007482Y-141265908D01*
X164007483Y-141265908D01*
X163947883Y-141259501D01*
X163947881Y-141259500D01*
X163947873Y-141259500D01*
X163947864Y-141259500D01*
X161852129Y-141259500D01*
X161852123Y-141259501D01*
X161792516Y-141265908D01*
X161657671Y-141316202D01*
X161657664Y-141316206D01*
X161542455Y-141402452D01*
X161542452Y-141402455D01*
X161456206Y-141517664D01*
X161456202Y-141517671D01*
X161405908Y-141652517D01*
X161399501Y-141712116D01*
X161399501Y-141712123D01*
X161399500Y-141712135D01*
X161399500Y-142807870D01*
X154865630Y-142807870D01*
X157099464Y-140574036D01*
X157138936Y-140514959D01*
X157198013Y-140426547D01*
X157239046Y-140327483D01*
X157263739Y-140267870D01*
X164699500Y-140267870D01*
X164699501Y-140267876D01*
X164705908Y-140327483D01*
X164756202Y-140462328D01*
X164756206Y-140462335D01*
X164842452Y-140577544D01*
X164842455Y-140577547D01*
X164957664Y-140663793D01*
X164957671Y-140663797D01*
X165092517Y-140714091D01*
X165092516Y-140714091D01*
X165099444Y-140714835D01*
X165152127Y-140720500D01*
X167247872Y-140720499D01*
X167307483Y-140714091D01*
X167442331Y-140663796D01*
X167557546Y-140577546D01*
X167643796Y-140462331D01*
X167694091Y-140327483D01*
X167700500Y-140267873D01*
X167700499Y-139172128D01*
X167694091Y-139112517D01*
X167643796Y-138977669D01*
X167643795Y-138977668D01*
X167643793Y-138977664D01*
X167557547Y-138862455D01*
X167557544Y-138862452D01*
X167442335Y-138776206D01*
X167442328Y-138776202D01*
X167307482Y-138725908D01*
X167307483Y-138725908D01*
X167247883Y-138719501D01*
X167247881Y-138719500D01*
X167247873Y-138719500D01*
X167247864Y-138719500D01*
X165152129Y-138719500D01*
X165152123Y-138719501D01*
X165092516Y-138725908D01*
X164957671Y-138776202D01*
X164957664Y-138776206D01*
X164842455Y-138862452D01*
X164842452Y-138862455D01*
X164756206Y-138977664D01*
X164756202Y-138977671D01*
X164705908Y-139112517D01*
X164699501Y-139172116D01*
X164699501Y-139172123D01*
X164699500Y-139172135D01*
X164699500Y-140267870D01*
X157263739Y-140267870D01*
X157265895Y-140262666D01*
X157300500Y-140088692D01*
X157300500Y-139911308D01*
X157300500Y-137430000D01*
X161400000Y-137430000D01*
X161400000Y-137727844D01*
X161406401Y-137787372D01*
X161406403Y-137787379D01*
X161456645Y-137922086D01*
X161456649Y-137922093D01*
X161542809Y-138037187D01*
X161542812Y-138037190D01*
X161657906Y-138123350D01*
X161657913Y-138123354D01*
X161792620Y-138173596D01*
X161792627Y-138173598D01*
X161852155Y-138179999D01*
X161852172Y-138180000D01*
X162650000Y-138180000D01*
X162650000Y-137430000D01*
X163150000Y-137430000D01*
X163150000Y-138180000D01*
X163947828Y-138180000D01*
X163947844Y-138179999D01*
X164007372Y-138173598D01*
X164007379Y-138173596D01*
X164142086Y-138123354D01*
X164142093Y-138123350D01*
X164257187Y-138037190D01*
X164257190Y-138037187D01*
X164343350Y-137922093D01*
X164343354Y-137922086D01*
X164393596Y-137787379D01*
X164393598Y-137787372D01*
X164399999Y-137727844D01*
X164400000Y-137727827D01*
X164400000Y-137430000D01*
X163150000Y-137430000D01*
X162650000Y-137430000D01*
X161400000Y-137430000D01*
X157300500Y-137430000D01*
X157300500Y-136930000D01*
X161400000Y-136930000D01*
X162650000Y-136930000D01*
X162650000Y-136180000D01*
X163150000Y-136180000D01*
X163150000Y-136930000D01*
X164400000Y-136930000D01*
X164400000Y-136632172D01*
X164399999Y-136632155D01*
X164393598Y-136572627D01*
X164393596Y-136572620D01*
X164343354Y-136437913D01*
X164343350Y-136437906D01*
X164257190Y-136322812D01*
X164257187Y-136322809D01*
X164142093Y-136236649D01*
X164142086Y-136236645D01*
X164007379Y-136186403D01*
X164007372Y-136186401D01*
X163947844Y-136180000D01*
X163150000Y-136180000D01*
X162650000Y-136180000D01*
X161852155Y-136180000D01*
X161792627Y-136186401D01*
X161792620Y-136186403D01*
X161657913Y-136236645D01*
X161657906Y-136236649D01*
X161542812Y-136322809D01*
X161542809Y-136322812D01*
X161456649Y-136437906D01*
X161456645Y-136437913D01*
X161406403Y-136572620D01*
X161406401Y-136572627D01*
X161400000Y-136632155D01*
X161400000Y-136930000D01*
X157300500Y-136930000D01*
X157300500Y-135187870D01*
X164699500Y-135187870D01*
X164699501Y-135187876D01*
X164705908Y-135247483D01*
X164756202Y-135382328D01*
X164756206Y-135382335D01*
X164842452Y-135497544D01*
X164842455Y-135497547D01*
X164957664Y-135583793D01*
X164957671Y-135583797D01*
X165092517Y-135634091D01*
X165092516Y-135634091D01*
X165099444Y-135634835D01*
X165152127Y-135640500D01*
X167247872Y-135640499D01*
X167307483Y-135634091D01*
X167442331Y-135583796D01*
X167557546Y-135497546D01*
X167643796Y-135382331D01*
X167694091Y-135247483D01*
X167700500Y-135187873D01*
X167700499Y-134092128D01*
X167694091Y-134032517D01*
X167687542Y-134014959D01*
X167643797Y-133897671D01*
X167643793Y-133897664D01*
X167557547Y-133782455D01*
X167557544Y-133782452D01*
X167442335Y-133696206D01*
X167442328Y-133696202D01*
X167307482Y-133645908D01*
X167307483Y-133645908D01*
X167247883Y-133639501D01*
X167247881Y-133639500D01*
X167247873Y-133639500D01*
X167247864Y-133639500D01*
X165152129Y-133639500D01*
X165152123Y-133639501D01*
X165092516Y-133645908D01*
X164957671Y-133696202D01*
X164957664Y-133696206D01*
X164842455Y-133782452D01*
X164842452Y-133782455D01*
X164756206Y-133897664D01*
X164756202Y-133897671D01*
X164705908Y-134032517D01*
X164701445Y-134074034D01*
X164699501Y-134092123D01*
X164699500Y-134092135D01*
X164699500Y-135187870D01*
X157300500Y-135187870D01*
X157300500Y-132217870D01*
X161349500Y-132217870D01*
X161349501Y-132217876D01*
X161355908Y-132277483D01*
X161406202Y-132412328D01*
X161406206Y-132412335D01*
X161492452Y-132527544D01*
X161492455Y-132527547D01*
X161607664Y-132613793D01*
X161607671Y-132613797D01*
X161742517Y-132664091D01*
X161742516Y-132664091D01*
X161749444Y-132664835D01*
X161802127Y-132670500D01*
X163897872Y-132670499D01*
X163957483Y-132664091D01*
X164092331Y-132613796D01*
X164207546Y-132527546D01*
X164293796Y-132412331D01*
X164344091Y-132277483D01*
X164350500Y-132217873D01*
X164350499Y-131122128D01*
X164344091Y-131062517D01*
X164293796Y-130927669D01*
X164293795Y-130927668D01*
X164293793Y-130927664D01*
X164207547Y-130812455D01*
X164207544Y-130812452D01*
X164092335Y-130726206D01*
X164092328Y-130726202D01*
X163957482Y-130675908D01*
X163957483Y-130675908D01*
X163897883Y-130669501D01*
X163897881Y-130669500D01*
X163897873Y-130669500D01*
X163897864Y-130669500D01*
X161802129Y-130669500D01*
X161802123Y-130669501D01*
X161742516Y-130675908D01*
X161607671Y-130726202D01*
X161607664Y-130726206D01*
X161492455Y-130812452D01*
X161492452Y-130812455D01*
X161406206Y-130927664D01*
X161406202Y-130927671D01*
X161355908Y-131062517D01*
X161349501Y-131122116D01*
X161349501Y-131122123D01*
X161349500Y-131122135D01*
X161349500Y-132217870D01*
X157300500Y-132217870D01*
X157300500Y-129677870D01*
X164649500Y-129677870D01*
X164649501Y-129677876D01*
X164655908Y-129737483D01*
X164706202Y-129872328D01*
X164706206Y-129872335D01*
X164792452Y-129987544D01*
X164792455Y-129987547D01*
X164907664Y-130073793D01*
X164907671Y-130073797D01*
X165042517Y-130124091D01*
X165042516Y-130124091D01*
X165049444Y-130124835D01*
X165102127Y-130130500D01*
X167197872Y-130130499D01*
X167257483Y-130124091D01*
X167392331Y-130073796D01*
X167507546Y-129987546D01*
X167593796Y-129872331D01*
X167644091Y-129737483D01*
X167650500Y-129677873D01*
X167650499Y-128582128D01*
X167644091Y-128522517D01*
X167593796Y-128387669D01*
X167593795Y-128387668D01*
X167593793Y-128387664D01*
X167507547Y-128272455D01*
X167507544Y-128272452D01*
X167392335Y-128186206D01*
X167392328Y-128186202D01*
X167257482Y-128135908D01*
X167257483Y-128135908D01*
X167197883Y-128129501D01*
X167197881Y-128129500D01*
X167197873Y-128129500D01*
X167197864Y-128129500D01*
X165102129Y-128129500D01*
X165102123Y-128129501D01*
X165042516Y-128135908D01*
X164907671Y-128186202D01*
X164907664Y-128186206D01*
X164792455Y-128272452D01*
X164792452Y-128272455D01*
X164706206Y-128387664D01*
X164706202Y-128387671D01*
X164655908Y-128522517D01*
X164649501Y-128582116D01*
X164649501Y-128582123D01*
X164649500Y-128582135D01*
X164649500Y-129677870D01*
X157300500Y-129677870D01*
X157300500Y-127137870D01*
X161349500Y-127137870D01*
X161349501Y-127137876D01*
X161355908Y-127197483D01*
X161406202Y-127332328D01*
X161406206Y-127332335D01*
X161492452Y-127447544D01*
X161492455Y-127447547D01*
X161607664Y-127533793D01*
X161607671Y-127533797D01*
X161742517Y-127584091D01*
X161742516Y-127584091D01*
X161749444Y-127584835D01*
X161802127Y-127590500D01*
X163897872Y-127590499D01*
X163957483Y-127584091D01*
X164092331Y-127533796D01*
X164207546Y-127447546D01*
X164293796Y-127332331D01*
X164344091Y-127197483D01*
X164350500Y-127137873D01*
X164350499Y-126042128D01*
X164344091Y-125982517D01*
X164293796Y-125847669D01*
X164293795Y-125847668D01*
X164293793Y-125847664D01*
X164207547Y-125732455D01*
X164207544Y-125732452D01*
X164092335Y-125646206D01*
X164092328Y-125646202D01*
X163957482Y-125595908D01*
X163957483Y-125595908D01*
X163897883Y-125589501D01*
X163897881Y-125589500D01*
X163897873Y-125589500D01*
X163897864Y-125589500D01*
X161802129Y-125589500D01*
X161802123Y-125589501D01*
X161742516Y-125595908D01*
X161607671Y-125646202D01*
X161607664Y-125646206D01*
X161492455Y-125732452D01*
X161492452Y-125732455D01*
X161406206Y-125847664D01*
X161406202Y-125847671D01*
X161355908Y-125982517D01*
X161349501Y-126042116D01*
X161349501Y-126042123D01*
X161349500Y-126042135D01*
X161349500Y-127137870D01*
X157300500Y-127137870D01*
X157300500Y-124300000D01*
X164650000Y-124300000D01*
X164650000Y-124597844D01*
X164656401Y-124657372D01*
X164656403Y-124657379D01*
X164706645Y-124792086D01*
X164706649Y-124792093D01*
X164792809Y-124907187D01*
X164792812Y-124907190D01*
X164907906Y-124993350D01*
X164907913Y-124993354D01*
X165042620Y-125043596D01*
X165042627Y-125043598D01*
X165102155Y-125049999D01*
X165102172Y-125050000D01*
X165900000Y-125050000D01*
X165900000Y-124300000D01*
X166400000Y-124300000D01*
X166400000Y-125050000D01*
X167197828Y-125050000D01*
X167197844Y-125049999D01*
X167257372Y-125043598D01*
X167257379Y-125043596D01*
X167392086Y-124993354D01*
X167392093Y-124993350D01*
X167507187Y-124907190D01*
X167507190Y-124907187D01*
X167593350Y-124792093D01*
X167593354Y-124792086D01*
X167643596Y-124657379D01*
X167643598Y-124657372D01*
X167649999Y-124597844D01*
X167650000Y-124597827D01*
X167650000Y-124300000D01*
X166400000Y-124300000D01*
X165900000Y-124300000D01*
X164650000Y-124300000D01*
X157300500Y-124300000D01*
X157300500Y-123800000D01*
X164650000Y-123800000D01*
X165900000Y-123800000D01*
X165900000Y-123050000D01*
X166400000Y-123050000D01*
X166400000Y-123800000D01*
X167650000Y-123800000D01*
X167650000Y-123502172D01*
X167649999Y-123502155D01*
X167643598Y-123442627D01*
X167643596Y-123442620D01*
X167593354Y-123307913D01*
X167593350Y-123307906D01*
X167507190Y-123192812D01*
X167507187Y-123192809D01*
X167392093Y-123106649D01*
X167392086Y-123106645D01*
X167257379Y-123056403D01*
X167257372Y-123056401D01*
X167197844Y-123050000D01*
X166400000Y-123050000D01*
X165900000Y-123050000D01*
X165102155Y-123050000D01*
X165042627Y-123056401D01*
X165042620Y-123056403D01*
X164907913Y-123106645D01*
X164907906Y-123106649D01*
X164792812Y-123192809D01*
X164792809Y-123192812D01*
X164706649Y-123307906D01*
X164706645Y-123307913D01*
X164656403Y-123442620D01*
X164656401Y-123442627D01*
X164650000Y-123502155D01*
X164650000Y-123800000D01*
X157300500Y-123800000D01*
X157300500Y-121747870D01*
X161299500Y-121747870D01*
X161299501Y-121747876D01*
X161305908Y-121807483D01*
X161356202Y-121942328D01*
X161356206Y-121942335D01*
X161442452Y-122057544D01*
X161442455Y-122057547D01*
X161557664Y-122143793D01*
X161557671Y-122143797D01*
X161692517Y-122194091D01*
X161692516Y-122194091D01*
X161699444Y-122194835D01*
X161752127Y-122200500D01*
X163847872Y-122200499D01*
X163907483Y-122194091D01*
X164042331Y-122143796D01*
X164157546Y-122057546D01*
X164243796Y-121942331D01*
X164294091Y-121807483D01*
X164300500Y-121747873D01*
X164300499Y-121103521D01*
X188591023Y-121103521D01*
X188591023Y-143002186D01*
X194205794Y-143002186D01*
X194205794Y-121103521D01*
X188591023Y-121103521D01*
X164300499Y-121103521D01*
X164300499Y-120652128D01*
X164294091Y-120592517D01*
X164243796Y-120457669D01*
X164243795Y-120457668D01*
X164243793Y-120457664D01*
X164157547Y-120342455D01*
X164157544Y-120342452D01*
X164042335Y-120256206D01*
X164042328Y-120256202D01*
X163907482Y-120205908D01*
X163907483Y-120205908D01*
X163847883Y-120199501D01*
X163847881Y-120199500D01*
X163847873Y-120199500D01*
X163847864Y-120199500D01*
X161752129Y-120199500D01*
X161752123Y-120199501D01*
X161692516Y-120205908D01*
X161557671Y-120256202D01*
X161557664Y-120256206D01*
X161442455Y-120342452D01*
X161442452Y-120342455D01*
X161356206Y-120457664D01*
X161356202Y-120457671D01*
X161305908Y-120592517D01*
X161300533Y-120642516D01*
X161299501Y-120652123D01*
X161299500Y-120652135D01*
X161299500Y-121747870D01*
X157300500Y-121747870D01*
X157300500Y-119207870D01*
X164599500Y-119207870D01*
X164599501Y-119207876D01*
X164605908Y-119267483D01*
X164656202Y-119402328D01*
X164656206Y-119402335D01*
X164742452Y-119517544D01*
X164742455Y-119517547D01*
X164857664Y-119603793D01*
X164857671Y-119603797D01*
X164992517Y-119654091D01*
X164992516Y-119654091D01*
X164999444Y-119654835D01*
X165052127Y-119660500D01*
X167147872Y-119660499D01*
X167207483Y-119654091D01*
X167342331Y-119603796D01*
X167457546Y-119517546D01*
X167543796Y-119402331D01*
X167594091Y-119267483D01*
X167600500Y-119207873D01*
X167600499Y-118112128D01*
X167594091Y-118052517D01*
X167543796Y-117917669D01*
X167543795Y-117917668D01*
X167543793Y-117917664D01*
X167457547Y-117802455D01*
X167457544Y-117802452D01*
X167342335Y-117716206D01*
X167342328Y-117716202D01*
X167207482Y-117665908D01*
X167207483Y-117665908D01*
X167147883Y-117659501D01*
X167147881Y-117659500D01*
X167147873Y-117659500D01*
X167147864Y-117659500D01*
X165052129Y-117659500D01*
X165052123Y-117659501D01*
X164992516Y-117665908D01*
X164857671Y-117716202D01*
X164857664Y-117716206D01*
X164742455Y-117802452D01*
X164742452Y-117802455D01*
X164656206Y-117917664D01*
X164656202Y-117917671D01*
X164605908Y-118052517D01*
X164600533Y-118102516D01*
X164599501Y-118112123D01*
X164599500Y-118112135D01*
X164599500Y-119207870D01*
X157300500Y-119207870D01*
X157300500Y-114127870D01*
X164599500Y-114127870D01*
X164599501Y-114127876D01*
X164605908Y-114187483D01*
X164656202Y-114322328D01*
X164656206Y-114322335D01*
X164742452Y-114437544D01*
X164742455Y-114437547D01*
X164857664Y-114523793D01*
X164857671Y-114523797D01*
X164992517Y-114574091D01*
X164992516Y-114574091D01*
X164999444Y-114574835D01*
X165052127Y-114580500D01*
X167147872Y-114580499D01*
X167207483Y-114574091D01*
X167342331Y-114523796D01*
X167457546Y-114437546D01*
X167543796Y-114322331D01*
X167594091Y-114187483D01*
X167600500Y-114127873D01*
X167600499Y-113032128D01*
X167594091Y-112972517D01*
X167543796Y-112837669D01*
X167543795Y-112837668D01*
X167543793Y-112837664D01*
X167457547Y-112722455D01*
X167457544Y-112722452D01*
X167342335Y-112636206D01*
X167342328Y-112636202D01*
X167207482Y-112585908D01*
X167207483Y-112585908D01*
X167147883Y-112579501D01*
X167147881Y-112579500D01*
X167147873Y-112579500D01*
X167147864Y-112579500D01*
X165052129Y-112579500D01*
X165052123Y-112579501D01*
X164992516Y-112585908D01*
X164857671Y-112636202D01*
X164857664Y-112636206D01*
X164742455Y-112722452D01*
X164742452Y-112722455D01*
X164656206Y-112837664D01*
X164656202Y-112837671D01*
X164605908Y-112972517D01*
X164600533Y-113022516D01*
X164599501Y-113032123D01*
X164599500Y-113032135D01*
X164599500Y-114127870D01*
X157300500Y-114127870D01*
X157300500Y-111050000D01*
X161300000Y-111050000D01*
X161300000Y-111347844D01*
X161306401Y-111407372D01*
X161306403Y-111407379D01*
X161356645Y-111542086D01*
X161356649Y-111542093D01*
X161442809Y-111657187D01*
X161442812Y-111657190D01*
X161557906Y-111743350D01*
X161557913Y-111743354D01*
X161692620Y-111793596D01*
X161692627Y-111793598D01*
X161752155Y-111799999D01*
X161752172Y-111800000D01*
X162550000Y-111800000D01*
X162550000Y-111050000D01*
X163050000Y-111050000D01*
X163050000Y-111800000D01*
X163847828Y-111800000D01*
X163847844Y-111799999D01*
X163907372Y-111793598D01*
X163907379Y-111793596D01*
X164042086Y-111743354D01*
X164042093Y-111743350D01*
X164157187Y-111657190D01*
X164157190Y-111657187D01*
X164243350Y-111542093D01*
X164243354Y-111542086D01*
X164293596Y-111407379D01*
X164293598Y-111407372D01*
X164299999Y-111347844D01*
X164300000Y-111347827D01*
X164300000Y-111050000D01*
X163050000Y-111050000D01*
X162550000Y-111050000D01*
X161300000Y-111050000D01*
X157300500Y-111050000D01*
X157300500Y-110550000D01*
X161300000Y-110550000D01*
X162550000Y-110550000D01*
X162550000Y-109800000D01*
X163050000Y-109800000D01*
X163050000Y-110550000D01*
X164300000Y-110550000D01*
X164300000Y-110252172D01*
X164299999Y-110252155D01*
X164293598Y-110192627D01*
X164293596Y-110192620D01*
X164243354Y-110057913D01*
X164243350Y-110057906D01*
X164157190Y-109942812D01*
X164157187Y-109942809D01*
X164042093Y-109856649D01*
X164042086Y-109856645D01*
X163907379Y-109806403D01*
X163907372Y-109806401D01*
X163847844Y-109800000D01*
X163050000Y-109800000D01*
X162550000Y-109800000D01*
X161752155Y-109800000D01*
X161692627Y-109806401D01*
X161692620Y-109806403D01*
X161557913Y-109856645D01*
X161557906Y-109856649D01*
X161442812Y-109942809D01*
X161442809Y-109942812D01*
X161356649Y-110057906D01*
X161356645Y-110057913D01*
X161306403Y-110192620D01*
X161306401Y-110192627D01*
X161300000Y-110252155D01*
X161300000Y-110550000D01*
X157300500Y-110550000D01*
X157300500Y-108807870D01*
X164599500Y-108807870D01*
X164599501Y-108807876D01*
X164605908Y-108867483D01*
X164656202Y-109002328D01*
X164656206Y-109002335D01*
X164742452Y-109117544D01*
X164742455Y-109117547D01*
X164857664Y-109203793D01*
X164857671Y-109203797D01*
X164992517Y-109254091D01*
X164992516Y-109254091D01*
X164999444Y-109254835D01*
X165052127Y-109260500D01*
X167147872Y-109260499D01*
X167207483Y-109254091D01*
X167342331Y-109203796D01*
X167457546Y-109117546D01*
X167543796Y-109002331D01*
X167594091Y-108867483D01*
X167600500Y-108807873D01*
X167600499Y-107712128D01*
X167594091Y-107652517D01*
X167556648Y-107552128D01*
X167543797Y-107517671D01*
X167543793Y-107517664D01*
X167457547Y-107402455D01*
X167457544Y-107402452D01*
X167342335Y-107316206D01*
X167342328Y-107316202D01*
X167207482Y-107265908D01*
X167207483Y-107265908D01*
X167147883Y-107259501D01*
X167147881Y-107259500D01*
X167147873Y-107259500D01*
X167147864Y-107259500D01*
X165052129Y-107259500D01*
X165052123Y-107259501D01*
X164992516Y-107265908D01*
X164857671Y-107316202D01*
X164857664Y-107316206D01*
X164742455Y-107402452D01*
X164742452Y-107402455D01*
X164656206Y-107517664D01*
X164656202Y-107517671D01*
X164605908Y-107652517D01*
X164599501Y-107712116D01*
X164599501Y-107712123D01*
X164599500Y-107712135D01*
X164599500Y-108807870D01*
X157300500Y-108807870D01*
X157300500Y-106267870D01*
X161299500Y-106267870D01*
X161299501Y-106267876D01*
X161305908Y-106327483D01*
X161356202Y-106462328D01*
X161356206Y-106462335D01*
X161442452Y-106577544D01*
X161442455Y-106577547D01*
X161557664Y-106663793D01*
X161557671Y-106663797D01*
X161692517Y-106714091D01*
X161692516Y-106714091D01*
X161699444Y-106714835D01*
X161752127Y-106720500D01*
X163847872Y-106720499D01*
X163907483Y-106714091D01*
X164042331Y-106663796D01*
X164157546Y-106577546D01*
X164243796Y-106462331D01*
X164294091Y-106327483D01*
X164300500Y-106267873D01*
X164300499Y-105172128D01*
X164294091Y-105112517D01*
X164256648Y-105012128D01*
X164243797Y-104977671D01*
X164243793Y-104977664D01*
X164157547Y-104862455D01*
X164157544Y-104862452D01*
X164042335Y-104776206D01*
X164042328Y-104776202D01*
X163907482Y-104725908D01*
X163907483Y-104725908D01*
X163847883Y-104719501D01*
X163847881Y-104719500D01*
X163847873Y-104719500D01*
X163847864Y-104719500D01*
X161752129Y-104719500D01*
X161752123Y-104719501D01*
X161692516Y-104725908D01*
X161557671Y-104776202D01*
X161557664Y-104776206D01*
X161442455Y-104862452D01*
X161442452Y-104862455D01*
X161356206Y-104977664D01*
X161356202Y-104977671D01*
X161305908Y-105112517D01*
X161299501Y-105172116D01*
X161299501Y-105172123D01*
X161299500Y-105172135D01*
X161299500Y-106267870D01*
X157300500Y-106267870D01*
X157300500Y-103727870D01*
X164599500Y-103727870D01*
X164599501Y-103727876D01*
X164605908Y-103787483D01*
X164656202Y-103922328D01*
X164656206Y-103922335D01*
X164742452Y-104037544D01*
X164742455Y-104037547D01*
X164857664Y-104123793D01*
X164857671Y-104123797D01*
X164992517Y-104174091D01*
X164992516Y-104174091D01*
X164999444Y-104174835D01*
X165052127Y-104180500D01*
X167147872Y-104180499D01*
X167207483Y-104174091D01*
X167342331Y-104123796D01*
X167457546Y-104037546D01*
X167543796Y-103922331D01*
X167594091Y-103787483D01*
X167600500Y-103727873D01*
X167600499Y-102632128D01*
X167594091Y-102572517D01*
X167556648Y-102472128D01*
X167543797Y-102437671D01*
X167543793Y-102437664D01*
X167457547Y-102322455D01*
X167457544Y-102322452D01*
X167342335Y-102236206D01*
X167342328Y-102236202D01*
X167207482Y-102185908D01*
X167207483Y-102185908D01*
X167147883Y-102179501D01*
X167147881Y-102179500D01*
X167147873Y-102179500D01*
X167147864Y-102179500D01*
X165052129Y-102179500D01*
X165052123Y-102179501D01*
X164992516Y-102185908D01*
X164857671Y-102236202D01*
X164857664Y-102236206D01*
X164742455Y-102322452D01*
X164742452Y-102322455D01*
X164656206Y-102437664D01*
X164656202Y-102437671D01*
X164605908Y-102572517D01*
X164599501Y-102632116D01*
X164599501Y-102632123D01*
X164599500Y-102632135D01*
X164599500Y-103727870D01*
X157300500Y-103727870D01*
X157300500Y-100807870D01*
X161399500Y-100807870D01*
X161399501Y-100807876D01*
X161405908Y-100867483D01*
X161456202Y-101002328D01*
X161456206Y-101002335D01*
X161542452Y-101117544D01*
X161542455Y-101117547D01*
X161657664Y-101203793D01*
X161657671Y-101203797D01*
X161792517Y-101254091D01*
X161792516Y-101254091D01*
X161799444Y-101254835D01*
X161852127Y-101260500D01*
X163947872Y-101260499D01*
X164007483Y-101254091D01*
X164142331Y-101203796D01*
X164257546Y-101117546D01*
X164343796Y-101002331D01*
X164394091Y-100867483D01*
X164400500Y-100807873D01*
X164400499Y-99712128D01*
X164394091Y-99652517D01*
X164379568Y-99613580D01*
X164343797Y-99517671D01*
X164343793Y-99517664D01*
X164257547Y-99402455D01*
X164257544Y-99402452D01*
X164142335Y-99316206D01*
X164142328Y-99316202D01*
X164007482Y-99265908D01*
X164007483Y-99265908D01*
X163947883Y-99259501D01*
X163947881Y-99259500D01*
X163947873Y-99259500D01*
X163947864Y-99259500D01*
X161852129Y-99259500D01*
X161852123Y-99259501D01*
X161792516Y-99265908D01*
X161657671Y-99316202D01*
X161657664Y-99316206D01*
X161542455Y-99402452D01*
X161542452Y-99402455D01*
X161456206Y-99517664D01*
X161456202Y-99517671D01*
X161405908Y-99652517D01*
X161399501Y-99712116D01*
X161399501Y-99712123D01*
X161399500Y-99712135D01*
X161399500Y-100807870D01*
X157300500Y-100807870D01*
X157300500Y-99140000D01*
X185550000Y-99140000D01*
X185550000Y-99787844D01*
X185556401Y-99847372D01*
X185556403Y-99847379D01*
X185606645Y-99982086D01*
X185606649Y-99982093D01*
X185692809Y-100097187D01*
X185692812Y-100097190D01*
X185807906Y-100183350D01*
X185807913Y-100183354D01*
X185942620Y-100233596D01*
X185942627Y-100233598D01*
X186002155Y-100239999D01*
X186002172Y-100240000D01*
X187050000Y-100240000D01*
X187050000Y-99140000D01*
X187550000Y-99140000D01*
X187550000Y-100240000D01*
X188597828Y-100240000D01*
X188597844Y-100239999D01*
X188657372Y-100233598D01*
X188657379Y-100233596D01*
X188792086Y-100183354D01*
X188792093Y-100183350D01*
X188907187Y-100097190D01*
X188907190Y-100097187D01*
X188993350Y-99982093D01*
X188993354Y-99982086D01*
X189043596Y-99847379D01*
X189043598Y-99847372D01*
X189049999Y-99787844D01*
X189050000Y-99787827D01*
X189050000Y-99140000D01*
X187550000Y-99140000D01*
X187050000Y-99140000D01*
X185550000Y-99140000D01*
X157300500Y-99140000D01*
X157300500Y-97970000D01*
X164700000Y-97970000D01*
X164700000Y-98267844D01*
X164706401Y-98327372D01*
X164706403Y-98327379D01*
X164756645Y-98462086D01*
X164756649Y-98462093D01*
X164842809Y-98577187D01*
X164842812Y-98577190D01*
X164957906Y-98663350D01*
X164957913Y-98663354D01*
X165092620Y-98713596D01*
X165092627Y-98713598D01*
X165152155Y-98719999D01*
X165152172Y-98720000D01*
X165950000Y-98720000D01*
X165950000Y-97970000D01*
X166450000Y-97970000D01*
X166450000Y-98720000D01*
X167247828Y-98720000D01*
X167247844Y-98719999D01*
X167307372Y-98713598D01*
X167307379Y-98713596D01*
X167442086Y-98663354D01*
X167442093Y-98663350D01*
X167557187Y-98577190D01*
X167557190Y-98577187D01*
X167643350Y-98462093D01*
X167643354Y-98462086D01*
X167693596Y-98327379D01*
X167693598Y-98327372D01*
X167699999Y-98267844D01*
X167700000Y-98267827D01*
X167700000Y-97970000D01*
X166450000Y-97970000D01*
X165950000Y-97970000D01*
X164700000Y-97970000D01*
X157300500Y-97970000D01*
X157300500Y-97470000D01*
X164700000Y-97470000D01*
X165950000Y-97470000D01*
X165950000Y-96720000D01*
X166450000Y-96720000D01*
X166450000Y-97470000D01*
X167700000Y-97470000D01*
X167700000Y-97172172D01*
X167699999Y-97172155D01*
X167693598Y-97112627D01*
X167693596Y-97112620D01*
X167643354Y-96977913D01*
X167643350Y-96977906D01*
X167557190Y-96862812D01*
X167557187Y-96862809D01*
X167442093Y-96776649D01*
X167442086Y-96776645D01*
X167307379Y-96726403D01*
X167307372Y-96726401D01*
X167247844Y-96720000D01*
X166450000Y-96720000D01*
X165950000Y-96720000D01*
X165152155Y-96720000D01*
X165092627Y-96726401D01*
X165092620Y-96726403D01*
X164957913Y-96776645D01*
X164957906Y-96776649D01*
X164842812Y-96862809D01*
X164842809Y-96862812D01*
X164756649Y-96977906D01*
X164756645Y-96977913D01*
X164706403Y-97112620D01*
X164706401Y-97112627D01*
X164700000Y-97172155D01*
X164700000Y-97470000D01*
X157300500Y-97470000D01*
X157300500Y-95727870D01*
X161399500Y-95727870D01*
X161399501Y-95727876D01*
X161405908Y-95787483D01*
X161456202Y-95922328D01*
X161456206Y-95922335D01*
X161542452Y-96037544D01*
X161542455Y-96037547D01*
X161657664Y-96123793D01*
X161657671Y-96123797D01*
X161792517Y-96174091D01*
X161792516Y-96174091D01*
X161799444Y-96174835D01*
X161852127Y-96180500D01*
X163947872Y-96180499D01*
X164007483Y-96174091D01*
X164142331Y-96123796D01*
X164257546Y-96037546D01*
X164343796Y-95922331D01*
X164394091Y-95787483D01*
X164400500Y-95727873D01*
X164400499Y-94632128D01*
X164394091Y-94572517D01*
X164383577Y-94544328D01*
X164343797Y-94437671D01*
X164343793Y-94437664D01*
X164257547Y-94322455D01*
X164257544Y-94322452D01*
X164142335Y-94236206D01*
X164142328Y-94236202D01*
X164007482Y-94185908D01*
X164007483Y-94185908D01*
X163947883Y-94179501D01*
X163947881Y-94179500D01*
X163947873Y-94179500D01*
X163947864Y-94179500D01*
X161852129Y-94179500D01*
X161852123Y-94179501D01*
X161792516Y-94185908D01*
X161657671Y-94236202D01*
X161657664Y-94236206D01*
X161542455Y-94322452D01*
X161542452Y-94322455D01*
X161456206Y-94437664D01*
X161456202Y-94437671D01*
X161405908Y-94572517D01*
X161399501Y-94632116D01*
X161399501Y-94632123D01*
X161399500Y-94632135D01*
X161399500Y-95727870D01*
X157300500Y-95727870D01*
X157300500Y-89824500D01*
X157320185Y-89757461D01*
X157372989Y-89711706D01*
X157424500Y-89700500D01*
X160311309Y-89700500D01*
X161975638Y-89700500D01*
X162042677Y-89720185D01*
X162063319Y-89736819D01*
X164663181Y-92336680D01*
X164696666Y-92398003D01*
X164699500Y-92424361D01*
X164699500Y-93187870D01*
X164699501Y-93187876D01*
X164705908Y-93247483D01*
X164756202Y-93382328D01*
X164756206Y-93382335D01*
X164842452Y-93497544D01*
X164842455Y-93497547D01*
X164957664Y-93583793D01*
X164957671Y-93583797D01*
X165002618Y-93600561D01*
X165092517Y-93634091D01*
X165152127Y-93640500D01*
X165875637Y-93640499D01*
X165942676Y-93660183D01*
X165963318Y-93676818D01*
X167593080Y-95306579D01*
X169210536Y-96924035D01*
X169290127Y-97003626D01*
X169335966Y-97049465D01*
X169483446Y-97148009D01*
X169483459Y-97148016D01*
X169604158Y-97198010D01*
X169647334Y-97215894D01*
X169689935Y-97224368D01*
X169821305Y-97250500D01*
X169821308Y-97250500D01*
X169821309Y-97250500D01*
X180711309Y-97250500D01*
X185448560Y-97250500D01*
X185515599Y-97270185D01*
X185561354Y-97322989D01*
X185564742Y-97331167D01*
X185606202Y-97442328D01*
X185606206Y-97442335D01*
X185683889Y-97546105D01*
X185708307Y-97611569D01*
X185693456Y-97679842D01*
X185683890Y-97694727D01*
X185606647Y-97797910D01*
X185606645Y-97797913D01*
X185556403Y-97932620D01*
X185556401Y-97932627D01*
X185550000Y-97992155D01*
X185550000Y-98640000D01*
X189050000Y-98640000D01*
X189050000Y-97992172D01*
X189049999Y-97992155D01*
X189043598Y-97932627D01*
X189043596Y-97932620D01*
X188993354Y-97797913D01*
X188993352Y-97797910D01*
X188916110Y-97694729D01*
X188891692Y-97629265D01*
X188906543Y-97560992D01*
X188916105Y-97546111D01*
X188993796Y-97442331D01*
X189016609Y-97381167D01*
X189058480Y-97325233D01*
X189123944Y-97300816D01*
X189132791Y-97300500D01*
X189288692Y-97300500D01*
X189575638Y-97300500D01*
X189642677Y-97320185D01*
X189663319Y-97336819D01*
X190263181Y-97936680D01*
X190296666Y-97998003D01*
X190299500Y-98024361D01*
X190299500Y-110025638D01*
X190279815Y-110092677D01*
X190263181Y-110113319D01*
X190062180Y-110314320D01*
X190000857Y-110347805D01*
X189931165Y-110342821D01*
X189875232Y-110300949D01*
X189850815Y-110235485D01*
X189850499Y-110226639D01*
X189850499Y-109352129D01*
X189850498Y-109352123D01*
X189850497Y-109352116D01*
X189844091Y-109292517D01*
X189832149Y-109260500D01*
X189793797Y-109157671D01*
X189793793Y-109157664D01*
X189707547Y-109042455D01*
X189707544Y-109042452D01*
X189592335Y-108956206D01*
X189592328Y-108956202D01*
X189457482Y-108905908D01*
X189457483Y-108905908D01*
X189397883Y-108899501D01*
X189397881Y-108899500D01*
X189397873Y-108899500D01*
X189397864Y-108899500D01*
X186802129Y-108899500D01*
X186802123Y-108899501D01*
X186742516Y-108905908D01*
X186607671Y-108956202D01*
X186607664Y-108956206D01*
X186492455Y-109042452D01*
X186492452Y-109042455D01*
X186406206Y-109157664D01*
X186406202Y-109157671D01*
X186355908Y-109292517D01*
X186349501Y-109352116D01*
X186349501Y-109352123D01*
X186349500Y-109352135D01*
X186349500Y-109425500D01*
X186329815Y-109492539D01*
X186277011Y-109538294D01*
X186225500Y-109549500D01*
X180481004Y-109549500D01*
X180345677Y-109576418D01*
X180345667Y-109576421D01*
X180218192Y-109629222D01*
X180103454Y-109705887D01*
X180103453Y-109705888D01*
X174426162Y-115383181D01*
X174364839Y-115416666D01*
X174338481Y-115419500D01*
X164337180Y-115419500D01*
X164270141Y-115399815D01*
X164237913Y-115369811D01*
X164157546Y-115262454D01*
X164109125Y-115226206D01*
X164042335Y-115176206D01*
X164042328Y-115176202D01*
X163907482Y-115125908D01*
X163907483Y-115125908D01*
X163847883Y-115119501D01*
X163847881Y-115119500D01*
X163847873Y-115119500D01*
X163847864Y-115119500D01*
X161752129Y-115119500D01*
X161752123Y-115119501D01*
X161692516Y-115125908D01*
X161557671Y-115176202D01*
X161557664Y-115176206D01*
X161442455Y-115262452D01*
X161442452Y-115262455D01*
X161356206Y-115377664D01*
X161356202Y-115377671D01*
X161305908Y-115512517D01*
X161299501Y-115572116D01*
X161299500Y-115572135D01*
X161299500Y-116667870D01*
X161299501Y-116667876D01*
X161305908Y-116727483D01*
X161356202Y-116862328D01*
X161356206Y-116862335D01*
X161442452Y-116977544D01*
X161442455Y-116977547D01*
X161557664Y-117063793D01*
X161557671Y-117063797D01*
X161692517Y-117114091D01*
X161692516Y-117114091D01*
X161699444Y-117114835D01*
X161752127Y-117120500D01*
X163847872Y-117120499D01*
X163907483Y-117114091D01*
X164042331Y-117063796D01*
X164157546Y-116977546D01*
X164237914Y-116870188D01*
X164293847Y-116828318D01*
X164337180Y-116820500D01*
X174748996Y-116820500D01*
X174840040Y-116802389D01*
X174884328Y-116793580D01*
X174948069Y-116767177D01*
X175011807Y-116740777D01*
X175011808Y-116740776D01*
X175011811Y-116740775D01*
X175126543Y-116664114D01*
X176210657Y-115580000D01*
X186350000Y-115580000D01*
X186350000Y-116227844D01*
X186356401Y-116287372D01*
X186356403Y-116287379D01*
X186406645Y-116422086D01*
X186406649Y-116422093D01*
X186492809Y-116537187D01*
X186492812Y-116537190D01*
X186607906Y-116623350D01*
X186607913Y-116623354D01*
X186742620Y-116673596D01*
X186742627Y-116673598D01*
X186802155Y-116679999D01*
X186802172Y-116680000D01*
X187850000Y-116680000D01*
X187850000Y-115580000D01*
X188350000Y-115580000D01*
X188350000Y-116680000D01*
X189397828Y-116680000D01*
X189397844Y-116679999D01*
X189457372Y-116673598D01*
X189457379Y-116673596D01*
X189592086Y-116623354D01*
X189592093Y-116623350D01*
X189707187Y-116537190D01*
X189707190Y-116537187D01*
X189793350Y-116422093D01*
X189793354Y-116422086D01*
X189843596Y-116287379D01*
X189843598Y-116287372D01*
X189849999Y-116227844D01*
X189850000Y-116227827D01*
X189850000Y-115580000D01*
X188350000Y-115580000D01*
X187850000Y-115580000D01*
X186350000Y-115580000D01*
X176210657Y-115580000D01*
X180803838Y-110986819D01*
X180865161Y-110953334D01*
X180891519Y-110950500D01*
X186225501Y-110950500D01*
X186292540Y-110970185D01*
X186338295Y-111022989D01*
X186349501Y-111074500D01*
X186349501Y-111147876D01*
X186355908Y-111207483D01*
X186406202Y-111342328D01*
X186406203Y-111342330D01*
X186483578Y-111445689D01*
X186507995Y-111511153D01*
X186493144Y-111579426D01*
X186483578Y-111594311D01*
X186406203Y-111697669D01*
X186406202Y-111697671D01*
X186355908Y-111832517D01*
X186349501Y-111892116D01*
X186349500Y-111892135D01*
X186349500Y-113687870D01*
X186349501Y-113687876D01*
X186355908Y-113747483D01*
X186406202Y-113882328D01*
X186406206Y-113882335D01*
X186483889Y-113986105D01*
X186508307Y-114051569D01*
X186493456Y-114119842D01*
X186483890Y-114134727D01*
X186406647Y-114237910D01*
X186406645Y-114237913D01*
X186356403Y-114372620D01*
X186356401Y-114372627D01*
X186350000Y-114432155D01*
X186350000Y-115080000D01*
X189850000Y-115080000D01*
X189850000Y-114432172D01*
X189849999Y-114432155D01*
X189843598Y-114372627D01*
X189843596Y-114372620D01*
X189793354Y-114237913D01*
X189793352Y-114237910D01*
X189716110Y-114134729D01*
X189691692Y-114069265D01*
X189706543Y-114000992D01*
X189716105Y-113986111D01*
X189793796Y-113882331D01*
X189844091Y-113747483D01*
X189850500Y-113687873D01*
X189850499Y-113124360D01*
X189870183Y-113057322D01*
X189886813Y-113036685D01*
X191899464Y-111024035D01*
X191966586Y-110923580D01*
X191998013Y-110876547D01*
X192017895Y-110828547D01*
X192065895Y-110712666D01*
X192100500Y-110538692D01*
X192100500Y-110361308D01*
X192100500Y-97511309D01*
X192100500Y-97511306D01*
X192100499Y-97511304D01*
X192065896Y-97337341D01*
X192065893Y-97337332D01*
X192063339Y-97331167D01*
X192022245Y-97231954D01*
X191998016Y-97173459D01*
X191998009Y-97173446D01*
X191899465Y-97025966D01*
X191851405Y-96977906D01*
X191774035Y-96900536D01*
X191593499Y-96720000D01*
X190574041Y-95700540D01*
X190574038Y-95700537D01*
X190499204Y-95650535D01*
X190426544Y-95601985D01*
X190426542Y-95601984D01*
X190344607Y-95568046D01*
X190344606Y-95568046D01*
X190262666Y-95534105D01*
X190262658Y-95534103D01*
X190088696Y-95499500D01*
X190088692Y-95499500D01*
X190088691Y-95499500D01*
X189474498Y-95499500D01*
X189427046Y-95490061D01*
X189412670Y-95484106D01*
X189412658Y-95484103D01*
X189238696Y-95449500D01*
X189238692Y-95449500D01*
X189238691Y-95449500D01*
X189151440Y-95449500D01*
X189084401Y-95429815D01*
X189038646Y-95377011D01*
X189035258Y-95368833D01*
X188993797Y-95257671D01*
X188993793Y-95257664D01*
X188907547Y-95142455D01*
X188907544Y-95142452D01*
X188792335Y-95056206D01*
X188792328Y-95056202D01*
X188657482Y-95005908D01*
X188657483Y-95005908D01*
X188597883Y-94999501D01*
X188597881Y-94999500D01*
X188597873Y-94999500D01*
X188597864Y-94999500D01*
X186002129Y-94999500D01*
X186002123Y-94999501D01*
X185942516Y-95005908D01*
X185807671Y-95056202D01*
X185807664Y-95056206D01*
X185692455Y-95142452D01*
X185692452Y-95142455D01*
X185606206Y-95257664D01*
X185606202Y-95257671D01*
X185564742Y-95368833D01*
X185522871Y-95424767D01*
X185457407Y-95449184D01*
X185448560Y-95449500D01*
X170334361Y-95449500D01*
X170267322Y-95429815D01*
X170246680Y-95413181D01*
X167736818Y-92903318D01*
X167703333Y-92841995D01*
X167700499Y-92815637D01*
X167700499Y-92092129D01*
X167700498Y-92092123D01*
X167694091Y-92032516D01*
X167643797Y-91897671D01*
X167643793Y-91897664D01*
X167557547Y-91782455D01*
X167557544Y-91782452D01*
X167442335Y-91696206D01*
X167442328Y-91696202D01*
X167307482Y-91645908D01*
X167307483Y-91645908D01*
X167247883Y-91639501D01*
X167247881Y-91639500D01*
X167247873Y-91639500D01*
X167247865Y-91639500D01*
X166564361Y-91639500D01*
X166497322Y-91619815D01*
X166476680Y-91603181D01*
X162974035Y-88100535D01*
X162974030Y-88100531D01*
X162914961Y-88061064D01*
X162914960Y-88061063D01*
X162826544Y-88001985D01*
X162826542Y-88001984D01*
X162744607Y-87968046D01*
X162744606Y-87968046D01*
X162662666Y-87934105D01*
X162662658Y-87934103D01*
X162488696Y-87899500D01*
X162488692Y-87899500D01*
X162488691Y-87899500D01*
X160488691Y-87899500D01*
X156488691Y-87899500D01*
X134538692Y-87899500D01*
X134361308Y-87899500D01*
X134361303Y-87899500D01*
X134187341Y-87934103D01*
X134187329Y-87934106D01*
X134105392Y-87968045D01*
X134105393Y-87968046D01*
X134023455Y-88001985D01*
X133935040Y-88061063D01*
X133935039Y-88061064D01*
X133875961Y-88100537D01*
X126669919Y-95306579D01*
X126608596Y-95340064D01*
X126538904Y-95335080D01*
X126482972Y-95293210D01*
X126456362Y-95257664D01*
X126416109Y-95203893D01*
X126391692Y-95138431D01*
X126406543Y-95070157D01*
X126416110Y-95055271D01*
X126493352Y-94952089D01*
X126493354Y-94952086D01*
X126543596Y-94817379D01*
X126543598Y-94817372D01*
X126549999Y-94757844D01*
X126550000Y-94757827D01*
X126550000Y-94110000D01*
X123050000Y-94110000D01*
X123050000Y-94757844D01*
X123056401Y-94817372D01*
X123056403Y-94817379D01*
X123106645Y-94952086D01*
X123106646Y-94952088D01*
X123183890Y-95055272D01*
X123208307Y-95120736D01*
X123193456Y-95189009D01*
X123183890Y-95203894D01*
X123106204Y-95307669D01*
X123106202Y-95307671D01*
X123055908Y-95442517D01*
X123049501Y-95502116D01*
X123049500Y-95502135D01*
X123049500Y-97297870D01*
X123049501Y-97297876D01*
X123055908Y-97357483D01*
X123106202Y-97492328D01*
X123106203Y-97492330D01*
X123183578Y-97595689D01*
X123207995Y-97661153D01*
X123193144Y-97729426D01*
X123183578Y-97744311D01*
X123106203Y-97847669D01*
X123106202Y-97847671D01*
X123055908Y-97982517D01*
X123051410Y-98024361D01*
X123049501Y-98042123D01*
X123049500Y-98042135D01*
X123049500Y-99837870D01*
X123049501Y-99837876D01*
X123055908Y-99897483D01*
X123106202Y-100032328D01*
X123106203Y-100032330D01*
X123106204Y-100032331D01*
X123180184Y-100131156D01*
X123183578Y-100135689D01*
X123207995Y-100201153D01*
X123193144Y-100269426D01*
X123183578Y-100284311D01*
X123106203Y-100387669D01*
X123106202Y-100387671D01*
X123055908Y-100522517D01*
X123049501Y-100582116D01*
X123049501Y-100582123D01*
X123049500Y-100582135D01*
X123049500Y-102377870D01*
X123049501Y-102377876D01*
X123055908Y-102437483D01*
X123106202Y-102572328D01*
X123106206Y-102572335D01*
X123192452Y-102687544D01*
X123192455Y-102687547D01*
X123307664Y-102773793D01*
X123307671Y-102773797D01*
X123442517Y-102824091D01*
X123442516Y-102824091D01*
X123449444Y-102824835D01*
X123502127Y-102830500D01*
X126097872Y-102830499D01*
X126157483Y-102824091D01*
X126292331Y-102773796D01*
X126407546Y-102687546D01*
X126493796Y-102572331D01*
X126544091Y-102437483D01*
X126550500Y-102377873D01*
X126550500Y-102304500D01*
X126570185Y-102237461D01*
X126622989Y-102191706D01*
X126674500Y-102180500D01*
X138128996Y-102180500D01*
X138220040Y-102162389D01*
X138264328Y-102153580D01*
X138328069Y-102127177D01*
X138391807Y-102100777D01*
X138391808Y-102100776D01*
X138391811Y-102100775D01*
X138506543Y-102024114D01*
X140187819Y-100342836D01*
X140249142Y-100309352D01*
X140318833Y-100314336D01*
X140374767Y-100356208D01*
X140399184Y-100421672D01*
X140399500Y-100430518D01*
X140399500Y-100878480D01*
X140379815Y-100945519D01*
X140363181Y-100966161D01*
X126243749Y-115085592D01*
X126182426Y-115119077D01*
X126112734Y-115114093D01*
X126056801Y-115072221D01*
X126039886Y-115041243D01*
X125993798Y-114917673D01*
X125993795Y-114917668D01*
X125916109Y-114813893D01*
X125891692Y-114748430D01*
X125906543Y-114680157D01*
X125916110Y-114665271D01*
X125993352Y-114562089D01*
X125993354Y-114562086D01*
X126043596Y-114427379D01*
X126043598Y-114427372D01*
X126049999Y-114367844D01*
X126050000Y-114367827D01*
X126050000Y-113720000D01*
X122550000Y-113720000D01*
X122550000Y-114367844D01*
X122556401Y-114427372D01*
X122556403Y-114427379D01*
X122606645Y-114562086D01*
X122606646Y-114562088D01*
X122683890Y-114665272D01*
X122708307Y-114730736D01*
X122693456Y-114799009D01*
X122683890Y-114813894D01*
X122606204Y-114917669D01*
X122606202Y-114917671D01*
X122555908Y-115052517D01*
X122549501Y-115112116D01*
X122549500Y-115112135D01*
X122549500Y-116907870D01*
X122549501Y-116907876D01*
X122555908Y-116967483D01*
X122606202Y-117102328D01*
X122606203Y-117102330D01*
X122683578Y-117205689D01*
X122707995Y-117271153D01*
X122693144Y-117339426D01*
X122683578Y-117354311D01*
X122606203Y-117457669D01*
X122606202Y-117457671D01*
X122555908Y-117592517D01*
X122549501Y-117652116D01*
X122549501Y-117652123D01*
X122549500Y-117652135D01*
X122549500Y-119447870D01*
X116500500Y-119447870D01*
X116500500Y-113220000D01*
X122550000Y-113220000D01*
X124050000Y-113220000D01*
X124050000Y-112120000D01*
X124550000Y-112120000D01*
X124550000Y-113220000D01*
X126050000Y-113220000D01*
X126050000Y-112572172D01*
X126049999Y-112572155D01*
X126043598Y-112512627D01*
X126043596Y-112512620D01*
X125993354Y-112377913D01*
X125993350Y-112377906D01*
X125907190Y-112262812D01*
X125907187Y-112262809D01*
X125792093Y-112176649D01*
X125792086Y-112176645D01*
X125657379Y-112126403D01*
X125657372Y-112126401D01*
X125597844Y-112120000D01*
X124550000Y-112120000D01*
X124050000Y-112120000D01*
X123002155Y-112120000D01*
X122942627Y-112126401D01*
X122942620Y-112126403D01*
X122807913Y-112176645D01*
X122807906Y-112176649D01*
X122692812Y-112262809D01*
X122692809Y-112262812D01*
X122606649Y-112377906D01*
X122606645Y-112377913D01*
X122556403Y-112512620D01*
X122556401Y-112512627D01*
X122550000Y-112572155D01*
X122550000Y-113220000D01*
X116500500Y-113220000D01*
X116500500Y-93610000D01*
X123050000Y-93610000D01*
X124550000Y-93610000D01*
X124550000Y-92510000D01*
X125050000Y-92510000D01*
X125050000Y-93610000D01*
X126550000Y-93610000D01*
X126550000Y-92962172D01*
X126549999Y-92962155D01*
X126543598Y-92902627D01*
X126543596Y-92902620D01*
X126493354Y-92767913D01*
X126493350Y-92767906D01*
X126407190Y-92652812D01*
X126407187Y-92652809D01*
X126292093Y-92566649D01*
X126292086Y-92566645D01*
X126157379Y-92516403D01*
X126157372Y-92516401D01*
X126097844Y-92510000D01*
X125050000Y-92510000D01*
X124550000Y-92510000D01*
X123502155Y-92510000D01*
X123442627Y-92516401D01*
X123442620Y-92516403D01*
X123307913Y-92566645D01*
X123307906Y-92566649D01*
X123192812Y-92652809D01*
X123192809Y-92652812D01*
X123106649Y-92767906D01*
X123106645Y-92767913D01*
X123056403Y-92902620D01*
X123056401Y-92902627D01*
X123050000Y-92962155D01*
X123050000Y-93610000D01*
X116500500Y-93610000D01*
X116500500Y-89003750D01*
X116500726Y-88996263D01*
X116518271Y-88706205D01*
X116520076Y-88691340D01*
X116571780Y-88409201D01*
X116575364Y-88394663D01*
X116652096Y-88148422D01*
X116660696Y-88120822D01*
X116665998Y-88106841D01*
X116783731Y-87845249D01*
X116790676Y-87832016D01*
X116939080Y-87586526D01*
X116947567Y-87574230D01*
X117124480Y-87348417D01*
X117134395Y-87337226D01*
X117337226Y-87134395D01*
X117348417Y-87124480D01*
X117574230Y-86947567D01*
X117586526Y-86939080D01*
X117832016Y-86790676D01*
X117845249Y-86783731D01*
X118106841Y-86665998D01*
X118120822Y-86660696D01*
X118394668Y-86575362D01*
X118409197Y-86571780D01*
X118691344Y-86520075D01*
X118706201Y-86518271D01*
X118996264Y-86500726D01*
X119003751Y-86500500D01*
X119065892Y-86500500D01*
X192934108Y-86500500D01*
X192996249Y-86500500D01*
X193003736Y-86500726D01*
G37*
G04 #@! TD.AperFunction*
M02*
